<svg width="297" height="68" viewBox="0 0 297 68" fill="none" xmlns="http://www.w3.org/2000/svg">
<rect x="0.5" y="0.5" width="296" height="67" rx="5.5" fill="white" style="fill:white;fill-opacity:1;"/>
<rect x="0.5" y="0.5" width="296" height="67" rx="5.5" stroke="#A6A6A6" style="stroke:#A6A6A6;stroke:color(display-p3 0.6510 0.6510 0.6510);stroke-opacity:1;"/>
<path fill-rule="evenodd" clip-rule="evenodd" d="M109.769 34.5806C109.791 32.8841 110.68 31.3171 112.125 30.4285C111.21 29.1204 109.73 28.3208 108.134 28.2709C106.455 28.0946 104.827 29.2757 103.971 29.2757C103.099 29.2757 101.782 28.2884 100.363 28.3176C98.4962 28.3779 96.7981 29.4134 95.89 31.0454C93.956 34.3938 95.3985 39.3149 97.2512 42.0215C98.1781 43.3469 99.2613 44.8273 100.679 44.7748C102.066 44.7173 102.584 43.8903 104.258 43.8903C105.917 43.8903 106.403 44.7748 107.849 44.7414C109.338 44.7173 110.275 43.4102 111.17 42.0723C111.836 41.1279 112.348 40.0842 112.688 38.9798C110.92 38.2321 109.771 36.5 109.769 34.5806Z" fill="black" style="fill:black;fill-opacity:1;"/>
<path fill-rule="evenodd" clip-rule="evenodd" d="M107.037 26.4906C107.849 25.5164 108.249 24.2642 108.152 23C106.912 23.1302 105.767 23.7228 104.944 24.6596C104.132 25.5839 103.721 26.7932 103.8 28.021C105.057 28.0339 106.25 27.4699 107.037 26.4906Z" fill="black" style="fill:black;fill-opacity:1;"/>
<path d="M125.557 27.78H126.979C127.075 27.78 127.195 27.774 127.339 27.762C127.483 27.744 127.636 27.708 127.798 27.654C127.96 27.594 128.119 27.51 128.275 27.402C128.437 27.294 128.581 27.147 128.707 26.961C128.833 26.775 128.935 26.544 129.013 26.268C129.097 25.986 129.139 25.647 129.139 25.251C129.139 24.867 129.1 24.525 129.022 24.225C128.95 23.919 128.827 23.661 128.653 23.451C128.485 23.235 128.266 23.073 127.996 22.965C127.726 22.851 127.393 22.794 126.997 22.794H125.557V27.78ZM124.702 22.074H126.907C127.897 22.074 128.659 22.326 129.193 22.83C129.727 23.334 129.994 24.102 129.994 25.134C129.994 25.674 129.934 26.154 129.814 26.574C129.694 26.988 129.508 27.339 129.256 27.627C129.004 27.909 128.683 28.125 128.293 28.275C127.903 28.425 127.441 28.5 126.907 28.5H124.702V22.074ZM131.651 26.178C131.651 26.46 131.687 26.712 131.759 26.934C131.837 27.15 131.942 27.333 132.074 27.483C132.206 27.627 132.359 27.738 132.533 27.816C132.713 27.894 132.902 27.933 133.1 27.933C133.298 27.933 133.484 27.894 133.658 27.816C133.838 27.738 133.994 27.627 134.126 27.483C134.258 27.333 134.36 27.15 134.432 26.934C134.51 26.712 134.549 26.46 134.549 26.178C134.549 25.896 134.51 25.647 134.432 25.431C134.36 25.209 134.258 25.023 134.126 24.873C133.994 24.723 133.838 24.609 133.658 24.531C133.484 24.453 133.298 24.414 133.1 24.414C132.902 24.414 132.713 24.453 132.533 24.531C132.359 24.609 132.206 24.723 132.074 24.873C131.942 25.023 131.837 25.209 131.759 25.431C131.687 25.647 131.651 25.896 131.651 26.178ZM130.841 26.178C130.841 25.836 130.889 25.518 130.985 25.224C131.081 24.924 131.225 24.666 131.417 24.45C131.609 24.228 131.846 24.054 132.128 23.928C132.41 23.802 132.734 23.739 133.1 23.739C133.472 23.739 133.796 23.802 134.072 23.928C134.354 24.054 134.591 24.228 134.783 24.45C134.975 24.666 135.119 24.924 135.215 25.224C135.311 25.518 135.359 25.836 135.359 26.178C135.359 26.52 135.311 26.838 135.215 27.132C135.119 27.426 134.975 27.684 134.783 27.906C134.591 28.122 134.354 28.293 134.072 28.419C133.796 28.539 133.472 28.599 133.1 28.599C132.734 28.599 132.41 28.539 132.128 28.419C131.846 28.293 131.609 28.122 131.417 27.906C131.225 27.684 131.081 27.426 130.985 27.132C130.889 26.838 130.841 26.52 130.841 26.178ZM141.049 28.5H140.239L139.294 24.801H139.276L138.34 28.5H137.512L136.018 23.847H136.864L137.917 27.654H137.935L138.871 23.847H139.708L140.68 27.654H140.698L141.742 23.847H142.534L141.049 28.5ZM143.441 23.847H144.161V24.585H144.179C144.497 24.021 145.001 23.739 145.691 23.739C145.997 23.739 146.252 23.781 146.456 23.865C146.66 23.949 146.825 24.066 146.951 24.216C147.077 24.366 147.164 24.546 147.212 24.756C147.266 24.96 147.293 25.188 147.293 25.44V28.5H146.528V25.35C146.528 25.062 146.444 24.834 146.276 24.666C146.108 24.498 145.877 24.414 145.583 24.414C145.349 24.414 145.145 24.45 144.971 24.522C144.803 24.594 144.662 24.696 144.548 24.828C144.434 24.96 144.347 25.116 144.287 25.296C144.233 25.47 144.206 25.662 144.206 25.872V28.5H143.441V23.847ZM148.667 22.074H149.432V28.5H148.667V22.074ZM151.355 26.178C151.355 26.46 151.391 26.712 151.463 26.934C151.541 27.15 151.646 27.333 151.778 27.483C151.91 27.627 152.063 27.738 152.237 27.816C152.417 27.894 152.606 27.933 152.804 27.933C153.002 27.933 153.188 27.894 153.362 27.816C153.542 27.738 153.698 27.627 153.83 27.483C153.962 27.333 154.064 27.15 154.136 26.934C154.214 26.712 154.253 26.46 154.253 26.178C154.253 25.896 154.214 25.647 154.136 25.431C154.064 25.209 153.962 25.023 153.83 24.873C153.698 24.723 153.542 24.609 153.362 24.531C153.188 24.453 153.002 24.414 152.804 24.414C152.606 24.414 152.417 24.453 152.237 24.531C152.063 24.609 151.91 24.723 151.778 24.873C151.646 25.023 151.541 25.209 151.463 25.431C151.391 25.647 151.355 25.896 151.355 26.178ZM150.545 26.178C150.545 25.836 150.593 25.518 150.689 25.224C150.785 24.924 150.929 24.666 151.121 24.45C151.313 24.228 151.55 24.054 151.832 23.928C152.114 23.802 152.438 23.739 152.804 23.739C153.176 23.739 153.5 23.802 153.776 23.928C154.058 24.054 154.295 24.228 154.487 24.45C154.679 24.666 154.823 24.924 154.919 25.224C155.015 25.518 155.063 25.836 155.063 26.178C155.063 26.52 155.015 26.838 154.919 27.132C154.823 27.426 154.679 27.684 154.487 27.906C154.295 28.122 154.058 28.293 153.776 28.419C153.5 28.539 153.176 28.599 152.804 28.599C152.438 28.599 152.114 28.539 151.832 28.419C151.55 28.293 151.313 28.122 151.121 27.906C150.929 27.684 150.785 27.426 150.689 27.132C150.593 26.838 150.545 26.52 150.545 26.178ZM160.267 28.482C160.135 28.56 159.952 28.599 159.718 28.599C159.52 28.599 159.361 28.545 159.241 28.437C159.127 28.323 159.07 28.14 159.07 27.888C158.86 28.14 158.614 28.323 158.332 28.437C158.056 28.545 157.756 28.599 157.432 28.599C157.222 28.599 157.021 28.575 156.829 28.527C156.643 28.479 156.481 28.404 156.343 28.302C156.205 28.2 156.094 28.068 156.01 27.906C155.932 27.738 155.893 27.537 155.893 27.303C155.893 27.039 155.938 26.823 156.028 26.655C156.118 26.487 156.235 26.352 156.379 26.25C156.529 26.142 156.697 26.061 156.883 26.007C157.075 25.953 157.27 25.908 157.468 25.872C157.678 25.83 157.876 25.8 158.062 25.782C158.254 25.758 158.422 25.728 158.566 25.692C158.71 25.65 158.824 25.593 158.908 25.521C158.992 25.443 159.034 25.332 159.034 25.188C159.034 25.02 159.001 24.885 158.935 24.783C158.875 24.681 158.794 24.603 158.692 24.549C158.596 24.495 158.485 24.459 158.359 24.441C158.239 24.423 158.119 24.414 157.999 24.414C157.675 24.414 157.405 24.477 157.189 24.603C156.973 24.723 156.856 24.954 156.838 25.296H156.073C156.085 25.008 156.145 24.765 156.253 24.567C156.361 24.369 156.505 24.21 156.685 24.09C156.865 23.964 157.069 23.874 157.297 23.82C157.531 23.766 157.78 23.739 158.044 23.739C158.254 23.739 158.461 23.754 158.665 23.784C158.875 23.814 159.064 23.877 159.232 23.973C159.4 24.063 159.535 24.192 159.637 24.36C159.739 24.528 159.79 24.747 159.79 25.017V27.411C159.79 27.591 159.799 27.723 159.817 27.807C159.841 27.891 159.913 27.933 160.033 27.933C160.099 27.933 160.177 27.918 160.267 27.888V28.482ZM159.025 26.097C158.929 26.169 158.803 26.223 158.647 26.259C158.491 26.289 158.326 26.316 158.152 26.34C157.984 26.358 157.813 26.382 157.639 26.412C157.465 26.436 157.309 26.478 157.171 26.538C157.033 26.598 156.919 26.685 156.829 26.799C156.745 26.907 156.703 27.057 156.703 27.249C156.703 27.375 156.727 27.483 156.775 27.573C156.829 27.657 156.895 27.726 156.973 27.78C157.057 27.834 157.153 27.873 157.261 27.897C157.369 27.921 157.483 27.933 157.603 27.933C157.855 27.933 158.071 27.9 158.251 27.834C158.431 27.762 158.578 27.675 158.692 27.573C158.806 27.465 158.89 27.351 158.944 27.231C158.998 27.105 159.025 26.988 159.025 26.88V26.097ZM161.717 26.214C161.717 26.43 161.744 26.643 161.798 26.853C161.858 27.057 161.945 27.24 162.059 27.402C162.179 27.564 162.329 27.693 162.509 27.789C162.695 27.885 162.911 27.933 163.157 27.933C163.415 27.933 163.634 27.882 163.814 27.78C163.994 27.678 164.141 27.546 164.255 27.384C164.369 27.216 164.45 27.027 164.498 26.817C164.552 26.607 164.579 26.394 164.579 26.178C164.579 25.95 164.552 25.731 164.498 25.521C164.444 25.305 164.357 25.116 164.237 24.954C164.123 24.792 163.973 24.663 163.787 24.567C163.601 24.465 163.376 24.414 163.112 24.414C162.854 24.414 162.635 24.465 162.455 24.567C162.275 24.669 162.131 24.804 162.023 24.972C161.915 25.14 161.837 25.332 161.789 25.548C161.741 25.764 161.717 25.986 161.717 26.214ZM165.317 28.5H164.552V27.87H164.534C164.408 28.128 164.21 28.314 163.94 28.428C163.67 28.542 163.373 28.599 163.049 28.599C162.689 28.599 162.374 28.533 162.104 28.401C161.84 28.269 161.618 28.092 161.438 27.87C161.264 27.648 161.132 27.39 161.042 27.096C160.952 26.802 160.907 26.49 160.907 26.16C160.907 25.83 160.949 25.518 161.033 25.224C161.123 24.93 161.255 24.675 161.429 24.459C161.609 24.237 161.831 24.063 162.095 23.937C162.365 23.805 162.677 23.739 163.031 23.739C163.151 23.739 163.28 23.751 163.418 23.775C163.556 23.799 163.694 23.841 163.832 23.901C163.97 23.955 164.099 24.03 164.219 24.126C164.345 24.216 164.45 24.33 164.534 24.468H164.552V22.074H165.317V28.5ZM169.917 26.178C169.917 26.46 169.953 26.712 170.025 26.934C170.103 27.15 170.208 27.333 170.34 27.483C170.472 27.627 170.625 27.738 170.799 27.816C170.979 27.894 171.168 27.933 171.366 27.933C171.564 27.933 171.75 27.894 171.924 27.816C172.104 27.738 172.26 27.627 172.392 27.483C172.524 27.333 172.626 27.15 172.698 26.934C172.776 26.712 172.815 26.46 172.815 26.178C172.815 25.896 172.776 25.647 172.698 25.431C172.626 25.209 172.524 25.023 172.392 24.873C172.26 24.723 172.104 24.609 171.924 24.531C171.75 24.453 171.564 24.414 171.366 24.414C171.168 24.414 170.979 24.453 170.799 24.531C170.625 24.609 170.472 24.723 170.34 24.873C170.208 25.023 170.103 25.209 170.025 25.431C169.953 25.647 169.917 25.896 169.917 26.178ZM169.107 26.178C169.107 25.836 169.155 25.518 169.251 25.224C169.347 24.924 169.491 24.666 169.683 24.45C169.875 24.228 170.112 24.054 170.394 23.928C170.676 23.802 171 23.739 171.366 23.739C171.738 23.739 172.062 23.802 172.338 23.928C172.62 24.054 172.857 24.228 173.049 24.45C173.241 24.666 173.385 24.924 173.481 25.224C173.577 25.518 173.625 25.836 173.625 26.178C173.625 26.52 173.577 26.838 173.481 27.132C173.385 27.426 173.241 27.684 173.049 27.906C172.857 28.122 172.62 28.293 172.338 28.419C172.062 28.539 171.738 28.599 171.366 28.599C171 28.599 170.676 28.539 170.394 28.419C170.112 28.293 169.875 28.122 169.683 27.906C169.491 27.684 169.347 27.426 169.251 27.132C169.155 26.838 169.107 26.52 169.107 26.178ZM174.707 23.847H175.427V24.585H175.445C175.763 24.021 176.267 23.739 176.957 23.739C177.263 23.739 177.518 23.781 177.722 23.865C177.926 23.949 178.091 24.066 178.217 24.216C178.343 24.366 178.43 24.546 178.478 24.756C178.532 24.96 178.559 25.188 178.559 25.44V28.5H177.794V25.35C177.794 25.062 177.71 24.834 177.542 24.666C177.374 24.498 177.143 24.414 176.849 24.414C176.615 24.414 176.411 24.45 176.237 24.522C176.069 24.594 175.928 24.696 175.814 24.828C175.7 24.96 175.613 25.116 175.553 25.296C175.499 25.47 175.472 25.662 175.472 25.872V28.5H174.707V23.847ZM183.635 23.847H184.562V24.522H183.635V27.411C183.635 27.501 183.641 27.573 183.653 27.627C183.671 27.681 183.701 27.723 183.743 27.753C183.785 27.783 183.842 27.804 183.914 27.816C183.992 27.822 184.091 27.825 184.211 27.825H184.562V28.5H183.977C183.779 28.5 183.608 28.488 183.464 28.464C183.326 28.434 183.212 28.383 183.122 28.311C183.038 28.239 182.975 28.137 182.933 28.005C182.891 27.873 182.87 27.699 182.87 27.483V24.522H182.078V23.847H182.87V22.452H183.635V23.847ZM185.592 22.074H186.357V24.531H186.375C186.435 24.387 186.519 24.267 186.627 24.171C186.735 24.069 186.855 23.988 186.987 23.928C187.125 23.862 187.266 23.814 187.41 23.784C187.56 23.754 187.704 23.739 187.842 23.739C188.148 23.739 188.403 23.781 188.607 23.865C188.811 23.949 188.976 24.066 189.102 24.216C189.228 24.366 189.315 24.546 189.363 24.756C189.417 24.96 189.444 25.188 189.444 25.44V28.5H188.679V25.35C188.679 25.062 188.595 24.834 188.427 24.666C188.259 24.498 188.028 24.414 187.734 24.414C187.5 24.414 187.296 24.45 187.122 24.522C186.954 24.594 186.813 24.696 186.699 24.828C186.585 24.96 186.498 25.116 186.438 25.296C186.384 25.47 186.357 25.662 186.357 25.872V28.5H185.592V22.074ZM194.004 25.728C193.992 25.548 193.95 25.377 193.878 25.215C193.812 25.053 193.719 24.915 193.599 24.801C193.485 24.681 193.347 24.588 193.185 24.522C193.029 24.45 192.855 24.414 192.663 24.414C192.465 24.414 192.285 24.45 192.123 24.522C191.967 24.588 191.832 24.681 191.718 24.801C191.604 24.921 191.514 25.062 191.448 25.224C191.382 25.38 191.343 25.548 191.331 25.728H194.004ZM194.742 27.024C194.64 27.546 194.415 27.939 194.067 28.203C193.719 28.467 193.281 28.599 192.753 28.599C192.381 28.599 192.057 28.539 191.781 28.419C191.511 28.299 191.283 28.131 191.097 27.915C190.911 27.699 190.77 27.441 190.674 27.141C190.584 26.841 190.533 26.514 190.521 26.16C190.521 25.806 190.575 25.482 190.683 25.188C190.791 24.894 190.941 24.639 191.133 24.423C191.331 24.207 191.562 24.039 191.826 23.919C192.096 23.799 192.39 23.739 192.708 23.739C193.122 23.739 193.464 23.826 193.734 24C194.01 24.168 194.229 24.384 194.391 24.648C194.559 24.912 194.673 25.2 194.733 25.512C194.799 25.824 194.826 26.121 194.814 26.403H191.331C191.325 26.607 191.349 26.802 191.403 26.988C191.457 27.168 191.544 27.33 191.664 27.474C191.784 27.612 191.937 27.723 192.123 27.807C192.309 27.891 192.528 27.933 192.78 27.933C193.104 27.933 193.368 27.858 193.572 27.708C193.782 27.558 193.92 27.33 193.986 27.024H194.742Z" fill="#666666" style="fill:#666666;fill:color(display-p3 0.4000 0.4000 0.4000);fill-opacity:1;"/>
<path d="M140.92 35.9766C143.218 35.9766 144.732 37.793 144.732 40.5987C144.732 43.4122 143.227 45.2198 140.954 45.2198C139.779 45.2812 138.673 44.666 138.105 43.6358H138.062V48.1202H136.204V36.0713H138.003V37.5772H138.037C138.63 36.5534 139.738 35.9385 140.92 35.9766ZM150.885 35.9766C153.183 35.9766 154.697 37.793 154.697 40.5987C154.697 43.4122 153.191 45.2198 150.919 45.2198C149.744 45.2812 148.638 44.666 148.07 43.6358H148.027V48.1202H146.169V36.0713H147.968V37.5772H148.002C148.595 36.5534 149.702 35.9385 150.885 35.9766ZM164.227 32.5C166.851 32.5 168.649 33.9717 168.71 36.1143H166.834C166.722 34.875 165.697 34.127 164.2 34.127C162.703 34.127 161.679 34.8838 161.679 35.9854C161.679 36.8633 162.333 37.3799 163.934 37.7754L165.302 38.1113C167.85 38.7138 168.908 39.7373 168.908 41.5537C168.908 43.8769 167.058 45.332 164.114 45.332C161.36 45.332 159.501 43.9111 159.381 41.665L161.283 41.6651C161.421 42.8965 162.617 43.7051 164.252 43.7051C165.818 43.7051 166.945 42.8965 166.945 41.7861C166.945 40.8223 166.266 40.2451 164.656 39.8496L163.047 39.4619C160.767 38.9111 159.708 37.8447 159.708 36.1143C159.708 33.9717 161.575 32.5 164.227 32.5ZM179.932 35.96C182.557 35.96 184.227 37.75 184.227 40.5987C184.227 43.4551 182.565 45.2374 179.932 45.2374C177.299 45.2374 175.638 43.4551 175.638 40.5987C175.638 37.7501 177.315 35.96 179.932 35.96ZM194.98 35.96C197.485 35.96 199.061 37.6807 199.061 40.4258V41.0625H192.666V41.1749C192.606 41.8489 192.839 42.5161 193.305 43.0067C193.771 43.4974 194.425 43.7642 195.102 43.7393C196.003 43.8238 196.854 43.3059 197.192 42.4659L198.957 42.4659C198.707 44.1094 197.106 45.2374 195.059 45.2374C192.425 45.2374 190.79 43.4727 190.79 40.6416C190.79 37.8018 192.434 35.96 194.98 35.96ZM172.919 33.9288V36.0713H174.641V37.543H172.919V42.5342C172.919 43.3096 173.264 43.6709 174.021 43.6709C174.225 43.6674 174.429 43.653 174.632 43.6279V45.0908C174.292 45.1544 173.946 45.1832 173.6 45.1768C171.767 45.1768 171.052 44.4883 171.052 42.7324V37.543H169.735V36.0713H171.052V33.9288H172.919ZM130.566 32.7071L135.05 45.1251H133.011L131.875 41.7686H127.142L126.005 45.1251H124L128.483 32.7071H130.566ZM189.752 35.9766C189.966 35.9759 190.18 35.9991 190.389 36.0459V37.7842C190.118 37.7016 189.836 37.6637 189.554 37.6719C189.007 37.6498 188.479 37.8675 188.106 38.268C187.734 38.6684 187.555 39.2116 187.617 39.7549V45.125H185.759V36.0713H187.531V37.6123H187.574C187.821 36.6203 188.73 35.9376 189.752 35.9766ZM179.932 37.4913C178.426 37.4913 177.531 38.6534 177.531 40.5987C177.531 42.5606 178.426 43.7051 179.932 43.7051C181.438 43.7051 182.333 42.5606 182.333 40.5987C182.333 38.6446 181.438 37.4913 179.932 37.4913ZM140.43 37.5606C139.01 37.5606 138.055 38.7911 138.055 40.5987C138.055 42.4229 139.01 43.6446 140.43 43.6446C141.875 43.6446 142.822 42.4483 142.822 40.5987C142.822 38.7657 141.875 37.5606 140.43 37.5606ZM150.395 37.5606C148.975 37.5606 148.02 38.7911 148.02 40.5987C148.02 42.4229 148.975 43.6446 150.395 43.6446C151.84 43.6446 152.787 42.4483 152.787 40.5987C152.787 38.7657 151.84 37.5606 150.395 37.5606ZM129.534 34.7725H129.482L127.632 40.2198H131.384L129.534 34.7725ZM194.98 37.4659C194.369 37.4622 193.782 37.7029 193.349 38.1344C192.916 38.5659 192.673 39.1525 192.675 39.7637H197.201C197.235 39.1581 197.014 38.5658 196.593 38.1296C196.171 37.6934 195.587 37.4528 194.98 37.4659Z" fill="black" style="fill:black;fill-opacity:1;"/>
</svg>
