<svg width="52" height="53" viewBox="0 0 52 53" fill="none" xmlns="http://www.w3.org/2000/svg">
<path d="M0 26.0903C0 11.7309 11.6406 0.090332 26 0.090332C40.3594 0.090332 52 11.7309 52 26.0903C52 40.4497 40.3594 52.0903 26 52.0903C11.6406 52.0903 0 40.4497 0 26.0903Z" fill="#FEF0F2" style="fill:#FEF0F2;fill:color(display-p3 0.9970 0.9430 0.9482);fill-opacity:1;"/>
<path d="M16.4665 13.4287C14.4613 13.5276 12.8443 15.103 12.6804 17.0905H14.7999C15.7203 17.0905 16.4665 16.3443 16.4665 15.4238V13.4287Z" fill="#F53D4F" style="fill:#F53D4F;fill:color(display-p3 0.9600 0.2400 0.3094);fill-opacity:1;"/>
<path d="M12.6667 19.0905V26.4238H13.3333V22.6619C13.3333 21.2133 13.9884 19.9221 15.0105 19.0845C14.9408 19.0885 14.8706 19.0905 14.7999 19.0905H12.6667Z" fill="#F53D4F" style="fill:#F53D4F;fill:color(display-p3 0.9600 0.2400 0.3094);fill-opacity:1;"/>
<path d="M13.3333 30.3024V28.4238H12.6804C12.7374 29.1147 12.9699 29.7558 13.3333 30.3024Z" fill="#F53D4F" style="fill:#F53D4F;fill:color(display-p3 0.9600 0.2400 0.3094);fill-opacity:1;"/>
<path d="M17.7778 18.0905H32.0168C31.3087 17.422 30.8668 16.4745 30.8668 15.4238V13.4238H18.4665V15.4238C18.4665 16.489 18.0123 17.4482 17.287 18.1181C17.4481 18.0998 17.6119 18.0905 17.7778 18.0905Z" fill="#F53D4F" style="fill:#F53D4F;fill:color(display-p3 0.9600 0.2400 0.3094);fill-opacity:1;"/>
<path d="M36.653 17.0905C36.489 15.103 34.8721 13.5276 32.8668 13.4287V15.4238C32.8668 16.3443 33.613 17.0905 34.5335 17.0905H36.653Z" fill="#F53D4F" style="fill:#F53D4F;fill:color(display-p3 0.9600 0.2400 0.3094);fill-opacity:1;"/>
<path d="M19.0001 20.1042C17.0568 20.2645 15.5073 21.8139 15.347 23.7572H17.3334C18.2539 23.7572 19.0001 23.011 19.0001 22.0905V20.1042Z" fill="#F53D4F" style="fill:#F53D4F;fill:color(display-p3 0.9600 0.2400 0.3094);fill-opacity:1;"/>
<path d="M27.3334 30.9238C28.2705 30.9238 28.9334 30.1995 28.9334 29.4238C28.9334 28.6481 28.2705 27.9238 27.3334 27.9238C26.3963 27.9238 25.7334 28.6481 25.7334 29.4238C25.7334 30.1995 26.3963 30.9238 27.3334 30.9238Z" fill="#F53D4F" style="fill:#F53D4F;fill:color(display-p3 0.9600 0.2400 0.3094);fill-opacity:1;"/>
<path fill-rule="evenodd" clip-rule="evenodd" d="M15.3333 25.7572V33.0905H17.4665C19.4916 33.0905 21.1332 34.7321 21.1332 36.7572V38.7572H33.5335V36.7572C33.5335 34.7321 35.1751 33.0905 37.2001 33.0905H39.3333V25.7572H37.2001C35.1751 25.7572 33.5335 24.1155 33.5335 22.0905V20.0905H21.0001V22.0905C21.0001 24.1155 19.3584 25.7572 17.3334 25.7572H15.3333ZM27.3334 32.9238C29.3216 32.9238 30.9334 31.3568 30.9334 29.4238C30.9334 27.4908 29.3216 25.9238 27.3334 25.9238C25.3452 25.9238 23.7334 27.4908 23.7334 29.4238C23.7334 31.3568 25.3452 32.9238 27.3334 32.9238Z" fill="#F53D4F" style="fill:#F53D4F;fill:color(display-p3 0.9600 0.2400 0.3094);fill-opacity:1;"/>
<path d="M19.1332 38.7522C17.1279 38.6534 15.511 37.078 15.347 35.0905H17.4665C18.387 35.0905 19.1332 35.8367 19.1332 36.7572V38.7522Z" fill="#F53D4F" style="fill:#F53D4F;fill:color(display-p3 0.9600 0.2400 0.3094);fill-opacity:1;"/>
<path d="M35.5335 38.7522C37.5387 38.6534 39.1557 37.078 39.3196 35.0905H37.2001C36.2797 35.0905 35.5335 35.8367 35.5335 36.7572V38.7522Z" fill="#F53D4F" style="fill:#F53D4F;fill:color(display-p3 0.9600 0.2400 0.3094);fill-opacity:1;"/>
<path d="M39.3196 23.7572C39.1557 21.7697 37.5387 20.1942 35.5335 20.0954V22.0905C35.5335 23.011 36.2797 23.7572 37.2001 23.7572H39.3196Z" fill="#F53D4F" style="fill:#F53D4F;fill:color(display-p3 0.9600 0.2400 0.3094);fill-opacity:1;"/>
</svg>
