<svg width="52" height="53" viewBox="0 0 52 53" fill="none" xmlns="http://www.w3.org/2000/svg">
<path d="M0 26.0903C0 11.7309 11.6406 0.090332 26 0.090332C40.3594 0.090332 52 11.7309 52 26.0903C52 40.4497 40.3594 52.0903 26 52.0903C11.6406 52.0903 0 40.4497 0 26.0903Z" fill="#FEF0F2" style="fill:#FEF0F2;fill:color(display-p3 0.9970 0.9430 0.9482);fill-opacity:1;"/>
<path d="M26 25.4237C27.1046 25.4237 28 24.5282 28 23.4237C28 22.3191 27.1046 21.4237 26 21.4237C24.8954 21.4237 24 22.3191 24 23.4237C24 24.5282 24.8954 25.4237 26 25.4237Z" fill="#F53D4F" style="fill:#F53D4F;fill:color(display-p3 0.9600 0.2400 0.3094);fill-opacity:1;"/>
<path fill-rule="evenodd" clip-rule="evenodd" d="M38.7055 23.7809C39.5426 25.21 39.5426 26.9707 38.7055 28.3997L35.3907 34.0587L35.3068 33.9888L34.6667 34.757C35.3068 33.9888 35.3068 33.9888 35.3068 33.9888L35.3058 33.9879L35.3004 33.9835L35.2882 33.9734L35.2463 33.9395C35.2108 33.911 35.1602 33.871 35.0954 33.8211C34.9657 33.7214 34.7787 33.582 34.5409 33.416C34.0661 33.0847 33.3845 32.6451 32.5491 32.2054C30.8919 31.3332 28.5595 30.4237 26 30.4237C23.4405 30.4237 21.108 31.3332 19.4509 32.2054C18.6155 32.6451 17.9339 33.0847 17.4591 33.416C17.2213 33.582 17.0342 33.7214 16.9046 33.8211C16.8398 33.871 16.7892 33.911 16.7537 33.9395L16.7118 33.9734L16.6995 33.9835L16.6956 33.9867L16.6942 33.9879C16.6942 33.9879 16.6931 33.9888 17.3333 34.757L16.6931 33.9888L16.6093 34.0587L13.2945 28.3997C12.4574 26.9707 12.4574 25.21 13.2945 23.7809L17.6181 16.3997C18.4552 14.9707 20.0022 14.0903 21.6764 14.0903H30.3236C31.9978 14.0903 33.5448 14.9707 34.3819 16.3997L38.7055 23.7809ZM26 27.4237C28.2091 27.4237 30 25.6328 30 23.4237C30 21.2145 28.2091 19.4237 26 19.4237C23.7909 19.4237 22 21.2145 22 23.4237C22 25.6328 23.7909 27.4237 26 27.4237Z" fill="#F53D4F" style="fill:#F53D4F;fill:color(display-p3 0.9600 0.2400 0.3094);fill-opacity:1;"/>
<path d="M17.6341 35.8081C18.4748 37.2211 20.0128 38.0903 21.6764 38.0903L30.3236 38.0903C31.9872 38.0903 33.5252 37.2211 34.3659 35.8081L34.0275 35.5261L34.0219 35.5215L33.9949 35.4996C33.9695 35.4793 33.9296 35.4477 33.876 35.4064C33.7686 35.3238 33.6067 35.2029 33.3966 35.0563C32.9756 34.7626 32.3655 34.3689 31.6176 33.9753C30.108 33.1808 28.1072 32.4237 26 32.4237C23.8928 32.4237 21.8919 33.1808 20.3824 33.9753C19.6345 34.3689 19.0244 34.7626 18.6034 35.0563C18.3933 35.2029 18.2314 35.3238 18.124 35.4064C18.0704 35.4477 18.0305 35.4793 18.0051 35.4996L17.9781 35.5215L17.9731 35.5255L17.6341 35.8081Z" fill="#F53D4F" style="fill:#F53D4F;fill:color(display-p3 0.9600 0.2400 0.3094);fill-opacity:1;"/>
</svg>
