<svg width="16" height="16" viewBox="0 0 16 16" fill="none" xmlns="http://www.w3.org/2000/svg">
<path fill-rule="evenodd" clip-rule="evenodd" d="M13.317 12.063V10.721C13.317 10.3887 13.449 10.07 13.684 9.83499L14.633 8.88599C15.1223 8.39666 15.1223 7.60332 14.633 7.11399L13.684 6.16499C13.449 5.93001 13.317 5.61131 13.317 5.27899V3.93599C13.317 3.24398 12.756 2.68299 12.064 2.68299H10.721C10.3887 2.68299 10.07 2.55097 9.83499 2.31599L8.88599 1.36699C8.39666 0.87767 7.60332 0.87767 7.11399 1.36699L6.16499 2.31599C5.93001 2.55097 5.61131 2.68299 5.27899 2.68299H3.93599C3.6035 2.68299 3.28464 2.81514 3.04963 3.05034C2.81462 3.28554 2.68273 3.6045 2.68299 3.93699V5.27899C2.68299 5.61131 2.55097 5.93001 2.31599 6.16499L1.36699 7.11399C0.87767 7.60332 0.87767 8.39666 1.36699 8.88599L2.31599 9.83499C2.55097 10.07 2.68299 10.3887 2.68299 10.721V12.063C2.68299 12.755 3.24398 13.316 3.93599 13.316H5.27899C5.61131 13.316 5.93001 13.448 6.16499 13.683L7.11399 14.632C7.60332 15.1213 8.39666 15.1213 8.88599 14.632L9.83499 13.683C10.07 13.448 10.3887 13.316 10.721 13.316H12.063C12.3955 13.3163 12.7144 13.1844 12.9496 12.9493C13.1848 12.7143 13.317 12.3955 13.317 12.063Z" stroke="#5C6A70" style="stroke:#5C6A70;stroke:color(display-p3 0.3600 0.4160 0.4400);stroke-opacity:1;" stroke-width="1.5" stroke-linecap="round" stroke-linejoin="round"/>
<path fill-rule="evenodd" clip-rule="evenodd" d="M5.28202 6.64105C5.00715 6.36621 4.92492 5.95286 5.07366 5.59375C5.2224 5.23464 5.57282 5.00049 5.96152 5.00049C6.35021 5.00049 6.70063 5.23464 6.84937 5.59375C6.99811 5.95286 6.91588 6.36621 6.64102 6.64105C6.26573 7.0163 5.6573 7.0163 5.28202 6.64105Z" stroke="#5C6A70" style="stroke:#5C6A70;stroke:color(display-p3 0.3600 0.4160 0.4400);stroke-opacity:1;" stroke-width="1.5" stroke-linecap="round" stroke-linejoin="round"/>
<path fill-rule="evenodd" clip-rule="evenodd" d="M9.35916 10.7177C9.0843 10.4429 9.00207 10.0295 9.15081 9.67041C9.29955 9.3113 9.64997 9.07715 10.0387 9.07715C10.4274 9.07715 10.7778 9.3113 10.9265 9.67041C11.0753 10.0295 10.993 10.4429 10.7182 10.7177C10.3429 11.093 9.73445 11.093 9.35916 10.7177Z" stroke="#5C6A70" style="stroke:#5C6A70;stroke:color(display-p3 0.3600 0.4160 0.4400);stroke-opacity:1;" stroke-width="1.5" stroke-linecap="round"/>
<path d="M10.7178 5.28125L5.28076 10.7193" stroke="#5C6A70" style="stroke:#5C6A70;stroke:color(display-p3 0.3600 0.4160 0.4400);stroke-opacity:1;" stroke-width="1.5" stroke-linecap="round"/>
</svg>
