<svg width="82" height="83" viewBox="0 0 82 83" fill="none" xmlns="http://www.w3.org/2000/svg">
<path d="M1 41.0903C1 18.9989 18.9086 1.09033 41 1.09033C63.0914 1.09033 81 18.9989 81 41.0903C81 63.1817 63.0914 81.0903 41 81.0903C18.9086 81.0903 1 63.1817 1 41.0903Z" stroke="#FA9EA7" style="stroke:#FA9EA7;stroke:color(display-p3 0.9800 0.6200 0.6547);stroke-opacity:1;" stroke-width="2" stroke-linecap="round" stroke-linejoin="round" stroke-dasharray="16 8"/>
<circle cx="41" cy="41.0903" r="34" fill="#FEF0F2" stroke="#FA9EA7" style="fill:#FEF0F2;fill:color(display-p3 0.9970 0.9430 0.9482);fill-opacity:1;stroke:#FA9EA7;stroke:color(display-p3 0.9800 0.6200 0.6547);stroke-opacity:1;" stroke-width="2" stroke-linecap="round" stroke-linejoin="round" stroke-dasharray="76 15"/>
<path d="M21.1404 31.5903C21.7503 28.3749 24.2846 25.8407 27.5 25.2307V29.0903C27.5 30.471 26.3807 31.5903 25 31.5903H21.1404Z" fill="#F53D4F" style="fill:#F53D4F;fill:color(display-p3 0.9600 0.2400 0.3094);fill-opacity:1;"/>
<path d="M44 41.0903C44 42.7472 42.6569 44.0903 41 44.0903C39.3431 44.0903 38 42.7472 38 41.0903C38 39.4335 39.3431 38.0903 41 38.0903C42.6569 38.0903 44 39.4335 44 41.0903Z" fill="#F53D4F" style="fill:#F53D4F;fill:color(display-p3 0.9600 0.2400 0.3094);fill-opacity:1;"/>
<path fill-rule="evenodd" clip-rule="evenodd" d="M21 47.5903V34.5903H25C28.0376 34.5903 30.5 32.1279 30.5 29.0903V25.0903H51.5V28.0903C51.5 31.1279 53.9624 33.5903 57 33.5903H61V47.5903H57C53.9624 47.5903 51.5 50.0528 51.5 53.0903V57.0903H30.5V53.0903C30.5 50.0528 28.0376 47.5903 25 47.5903H21ZM47 41.0903C47 44.404 44.3137 47.0903 41 47.0903C37.6863 47.0903 35 44.404 35 41.0903C35 37.7766 37.6863 35.0903 41 35.0903C44.3137 35.0903 47 37.7766 47 41.0903Z" fill="#F53D4F" style="fill:#F53D4F;fill:color(display-p3 0.9600 0.2400 0.3094);fill-opacity:1;"/>
<path d="M27.5 56.9499V53.0903C27.5 51.7096 26.3807 50.5903 25 50.5903H21.1404C21.7503 53.8057 24.2846 56.34 27.5 56.9499Z" fill="#F53D4F" style="fill:#F53D4F;fill:color(display-p3 0.9600 0.2400 0.3094);fill-opacity:1;"/>
<path d="M60.8596 50.5903C60.2497 53.8057 57.7154 56.34 54.5 56.9499V53.0903C54.5 51.7096 55.6193 50.5903 57 50.5903H60.8596Z" fill="#F53D4F" style="fill:#F53D4F;fill:color(display-p3 0.9600 0.2400 0.3094);fill-opacity:1;"/>
<path d="M60.6016 30.5903H57C55.6193 30.5903 54.5 29.471 54.5 28.0903V25.2307C57.3739 25.7759 59.7036 27.8583 60.6016 30.5903Z" fill="#F53D4F" style="fill:#F53D4F;fill:color(display-p3 0.9600 0.2400 0.3094);fill-opacity:1;"/>
</svg>
