<svg width="82" height="83" viewBox="0 0 82 83" fill="none" xmlns="http://www.w3.org/2000/svg">
<path d="M1 41.0903C1 18.9989 18.9086 1.09033 41 1.09033C63.0914 1.09033 81 18.9989 81 41.0903C81 63.1817 63.0914 81.0903 41 81.0903C18.9086 81.0903 1 63.1817 1 41.0903Z" stroke="#FA9EA7" style="stroke:#FA9EA7;stroke:color(display-p3 0.9800 0.6200 0.6547);stroke-opacity:1;" stroke-width="2" stroke-linecap="round" stroke-linejoin="round" stroke-dasharray="16 8"/>
<circle cx="41" cy="41.0903" r="34" fill="#FEF0F2" stroke="#FA9EA7" style="fill:#FEF0F2;fill:color(display-p3 0.9970 0.9430 0.9482);fill-opacity:1;stroke:#FA9EA7;stroke:color(display-p3 0.9800 0.6200 0.6547);stroke-opacity:1;" stroke-width="2" stroke-linecap="round" stroke-linejoin="round" stroke-dasharray="76 15"/>
<path d="M34.7154 26.5819L37.1149 25.2489C39.531 23.9066 42.469 23.9066 44.8851 25.2489L54.8851 30.8045C55.25 31.0072 55.595 31.2361 55.9183 31.488L49.0494 35.5521L34.7154 26.5819Z" fill="#F53D4F" style="fill:#F53D4F;fill:color(display-p3 0.9600 0.2400 0.3094);fill-opacity:1;"/>
<path d="M32.0721 28.0504L27.1149 30.8045C26.6138 31.0829 26.1502 31.4106 25.7289 31.7795C25.7311 31.7808 25.7332 31.782 25.7354 31.7832L37.6836 38.5042C39.719 39.6492 42.2121 39.6142 44.2146 38.4127L44.2225 38.4079L46.1425 37.272L32.7043 28.8624C32.3921 28.667 32.1766 28.3756 32.0721 28.0504Z" fill="#F53D4F" style="fill:#F53D4F;fill:color(display-p3 0.9600 0.2400 0.3094);fill-opacity:1;"/>
<path d="M23.9001 34.1111C23.3185 35.2309 23 36.4912 23 37.7977V46.3833C23 49.2886 24.5751 51.9656 27.1149 53.3765L37.1149 58.9321C37.874 59.3539 38.6847 59.6431 39.5144 59.7998C39.5049 59.7315 39.5 59.6617 39.5 59.5908V42.2398C38.3622 42.0741 37.247 41.7007 36.2127 41.1189L24.2646 34.3979C24.1253 34.3195 24.0033 34.2222 23.9001 34.1111Z" fill="#F53D4F" style="fill:#F53D4F;fill:color(display-p3 0.9600 0.2400 0.3094);fill-opacity:1;"/>
<path d="M42.5 42.1983V59.5908C42.5 59.6617 42.4951 59.7315 42.4856 59.7998C43.3153 59.6431 44.126 59.3539 44.8851 58.9321L54.8851 53.3765C57.4249 51.9656 59 49.2886 59 46.3833V37.7977C59 36.3601 58.6143 34.9783 57.9169 33.7782C57.8686 33.8153 57.8176 33.85 57.7638 33.8818L45.7581 40.9851L45.754 40.9876C44.7365 41.5975 43.6324 42.0013 42.5 42.1983Z" fill="#F53D4F" style="fill:#F53D4F;fill:color(display-p3 0.9600 0.2400 0.3094);fill-opacity:1;"/>
</svg>
