<svg width="82" height="83" viewBox="0 0 82 83" fill="none" xmlns="http://www.w3.org/2000/svg">
<path d="M1 41.0903C1 18.9989 18.9086 1.09033 41 1.09033C63.0914 1.09033 81 18.9989 81 41.0903C81 63.1817 63.0914 81.0903 41 81.0903C18.9086 81.0903 1 63.1817 1 41.0903Z" stroke="#FA9EA7" style="stroke:#FA9EA7;stroke:color(display-p3 0.9800 0.6200 0.6547);stroke-opacity:1;" stroke-width="2" stroke-linecap="round" stroke-linejoin="round" stroke-dasharray="16 8"/>
<circle cx="41" cy="41.0903" r="34" fill="#FEF0F2" stroke="#FA9EA7" style="fill:#FEF0F2;fill:color(display-p3 0.9970 0.9430 0.9482);fill-opacity:1;stroke:#FA9EA7;stroke:color(display-p3 0.9800 0.6200 0.6547);stroke-opacity:1;" stroke-width="2" stroke-linecap="round" stroke-linejoin="round" stroke-dasharray="76 15"/>
<path d="M31.4508 31.9412C30.7334 31.527 30.4876 30.6096 30.9018 29.8921L34.1076 24.3398C36.9944 19.3398 44.2113 19.3399 47.098 24.3399L52.0908 32.9882L53.3497 28.2902C53.5641 27.49 54.3866 27.0151 55.1868 27.2295C55.987 27.4439 56.4619 28.2665 56.2474 29.0667L54.0571 37.2413C53.9614 37.6207 53.7182 37.9625 53.3525 38.1737C53.1581 38.2859 52.949 38.3497 52.7393 38.3687C52.5676 38.3845 52.3904 38.3707 52.2142 38.3235L44.018 36.1273C43.2178 35.9129 42.7429 35.0904 42.9574 34.2902C43.1718 33.49 43.9943 33.0151 44.7945 33.2295L49.4929 34.4885L44.4999 25.8399C42.7679 22.8399 38.4377 22.8398 36.7056 25.8398L33.4999 31.3922C33.0856 32.1096 32.1683 32.3554 31.4508 31.9412Z" fill="#F53D4F" style="fill:#F53D4F;fill:color(display-p3 0.9600 0.2400 0.3094);fill-opacity:1;"/>
<path d="M29.9437 43.4985C30.1581 44.2987 30.9806 44.7736 31.7808 44.5592C32.581 44.3448 33.0559 43.5223 32.8415 42.7221L30.6453 34.5259C30.5716 34.2508 30.426 34.0142 30.2342 33.8308C30.2077 33.8054 30.1803 33.7811 30.152 33.7578C30.0396 33.6651 29.9143 33.5891 29.7804 33.5324C29.6787 33.4893 29.5743 33.4582 29.4689 33.4387C29.2704 33.4019 29.0615 33.4048 28.8533 33.4539C28.836 33.4579 28.8188 33.4623 28.8016 33.467L20.612 35.6614C19.8118 35.8758 19.3369 36.6983 19.5514 37.4985C19.7658 38.2987 20.5883 38.7736 21.3885 38.5592L26.0865 37.3003L21.0932 45.9486C18.2064 50.9486 21.8147 57.1986 27.5882 57.1987L33.9996 57.1988C34.8281 57.1988 35.4996 56.5272 35.4997 55.6988C35.4997 54.8704 34.8281 54.1988 33.9997 54.1988L27.5883 54.1987C24.1242 54.1987 21.9592 50.4486 23.6913 47.4486L28.6847 38.8L29.9437 43.4985Z" fill="#F53D4F" style="fill:#F53D4F;fill:color(display-p3 0.9600 0.2400 0.3094);fill-opacity:1;"/>
<path d="M54.8483 39.7911C55.5658 39.3769 56.4831 39.6227 56.8974 40.3402L60.103 45.8926C62.9897 50.8927 59.3811 57.1427 53.6076 57.1426L43.6213 57.1424L47.0607 60.5818C47.6464 61.1675 47.6464 62.1173 47.0606 62.7031C46.4749 63.2889 45.5251 63.2889 44.9393 62.7031L38.9393 56.7031C38.7886 56.5524 38.6767 56.3776 38.6035 56.1911C38.5456 56.0439 38.5103 55.8852 38.5019 55.7195C38.5006 55.6939 38.5 55.6682 38.5 55.6423C38.5 55.4276 38.5451 55.2234 38.6264 55.0388C38.6859 54.9032 38.7665 54.7746 38.8681 54.658C38.8934 54.629 38.9198 54.6009 38.9473 54.5738L44.9393 48.5817C45.5251 47.996 46.4749 47.996 47.0606 48.5817C47.6464 49.1675 47.6464 50.1173 47.0606 50.7031L43.6213 54.1424L53.6077 54.1426C57.0718 54.1426 59.2369 50.3926 57.5049 47.3926L54.2993 41.8401C53.8851 41.1227 54.1309 40.2053 54.8483 39.7911Z" fill="#F53D4F" style="fill:#F53D4F;fill:color(display-p3 0.9600 0.2400 0.3094);fill-opacity:1;"/>
</svg>
