<svg width="82" height="83" viewBox="0 0 82 83" fill="none" xmlns="http://www.w3.org/2000/svg">
<path d="M1 41.0903C1 18.9989 18.9086 1.09033 41 1.09033C63.0914 1.09033 81 18.9989 81 41.0903C81 63.1817 63.0914 81.0903 41 81.0903C18.9086 81.0903 1 63.1817 1 41.0903Z" stroke="#FA9EA7" style="stroke:#FA9EA7;stroke:color(display-p3 0.9800 0.6200 0.6547);stroke-opacity:1;" stroke-width="2" stroke-linecap="round" stroke-linejoin="round" stroke-dasharray="16 8"/>
<circle cx="41" cy="41.0903" r="34" fill="#FEF0F2" stroke="#FA9EA7" style="fill:#FEF0F2;fill:color(display-p3 0.9970 0.9430 0.9482);fill-opacity:1;stroke:#FA9EA7;stroke:color(display-p3 0.9800 0.6200 0.6547);stroke-opacity:1;" stroke-width="2" stroke-linecap="round" stroke-linejoin="round" stroke-dasharray="76 15"/>
<path d="M43.7716 22.9423C43.8181 23.0544 43.8576 23.169 43.89 23.2854C44.3375 23.3597 44.7781 23.4546 45.2106 23.5691C43.841 25.0049 43 26.9494 43 29.0903C43 33.5086 46.5817 37.0903 51 37.0903C52.7915 37.0903 54.4455 36.5014 55.7789 35.5067C55.8683 36.1553 55.9145 36.8178 55.9145 37.491V40.0903C55.9145 43.7226 56.8087 48.3706 57.6344 51.8882C58.247 54.4982 56.3001 57.0903 53.6191 57.0903H45C45 57.6156 44.8965 58.1358 44.6955 58.6211C44.4945 59.1064 44.1999 59.5473 43.8284 59.9188C43.457 60.2902 43.016 60.5848 42.5307 60.7859C42.0454 60.9869 41.5253 61.0903 41 61.0903C40.4747 61.0903 39.9546 60.9869 39.4693 60.7859C38.984 60.5848 38.543 60.2902 38.1716 59.9188C37.8001 59.5473 37.5055 59.1064 37.3045 58.6211C37.1035 58.1358 37 57.6156 37 57.0903H28.9335C26.0969 57.0903 24.1187 54.203 24.9535 51.492C26.0155 48.0429 27.1145 43.6206 27.1145 40.0903V37.491C27.1145 30.73 31.774 25.0567 38.057 23.5081C38.0953 23.3148 38.1526 23.1252 38.2284 22.9423C38.3791 22.5783 38.6001 22.2476 38.8787 21.969C39.1573 21.6904 39.488 21.4695 39.8519 21.3187C40.2159 21.1679 40.606 21.0903 41 21.0903C41.394 21.0903 41.7841 21.1679 42.1481 21.3187C42.512 21.4695 42.8427 21.6904 43.1213 21.969C43.3999 22.2476 43.6209 22.5783 43.7716 22.9423Z" fill="#F53D4F" style="fill:#F53D4F;fill:color(display-p3 0.9600 0.2400 0.3094);fill-opacity:1;"/>
<path d="M51 35.0903C54.3137 35.0903 57 32.404 57 29.0903C57 25.7766 54.3137 23.0903 51 23.0903C47.6863 23.0903 45 25.7766 45 29.0903C45 32.404 47.6863 35.0903 51 35.0903Z" fill="#F53D4F" style="fill:#F53D4F;fill:color(display-p3 0.9600 0.2400 0.3094);fill-opacity:1;"/>
</svg>
