<svg width="83" height="83" viewBox="0 0 83 83" fill="none" xmlns="http://www.w3.org/2000/svg">
<path d="M1.74829 41.0903C1.74829 18.9989 19.6569 1.09033 41.7483 1.09033C63.8397 1.09033 81.7483 18.9989 81.7483 41.0903C81.7483 63.1817 63.8397 81.0903 41.7483 81.0903C19.6569 81.0903 1.74829 63.1817 1.74829 41.0903Z" stroke="#FA9EA7" style="stroke:#FA9EA7;stroke:color(display-p3 0.9800 0.6200 0.6547);stroke-opacity:1;" stroke-width="2" stroke-linecap="round" stroke-linejoin="round" stroke-dasharray="16 8"/>
<circle cx="41.7483" cy="41.0903" r="34" fill="#FEF0F2" stroke="#FA9EA7" style="fill:#FEF0F2;fill:color(display-p3 0.9970 0.9430 0.9482);fill-opacity:1;stroke:#FA9EA7;stroke:color(display-p3 0.9800 0.6200 0.6547);stroke-opacity:1;" stroke-width="2" stroke-linecap="round" stroke-linejoin="round" stroke-dasharray="76 15"/>
<path d="M35.269 27.6535L35.5201 27.8041C36.0863 28.1439 37.6847 28.7051 39.885 28.8695C42.0189 29.029 44.5724 28.8021 47.0821 27.7436C47.4691 27.525 47.9256 27.285 48.4311 27.0411L49.748 23.0903L45.7477 25.0903L41.748 23.0903L37.7483 25.0903L33.748 23.0903L35.269 27.6535Z" fill="#F53D4F" style="fill:#F53D4F;fill:color(display-p3 0.9600 0.2400 0.3094);fill-opacity:1;"/>
<path d="M40.3078 41.6343C39.5545 41.8296 38.9983 42.5141 38.9983 43.3284C38.9983 44.1428 39.5545 44.8272 40.3078 45.0225V41.6343Z" fill="#F53D4F" style="fill:#F53D4F;fill:color(display-p3 0.9600 0.2400 0.3094);fill-opacity:1;"/>
<path d="M42.8078 51.0774C43.7468 51.0461 44.4983 50.275 44.4983 49.3284C44.4983 48.3819 43.7468 47.6108 42.8078 47.5794V51.0774Z" fill="#F53D4F" style="fill:#F53D4F;fill:color(display-p3 0.9600 0.2400 0.3094);fill-opacity:1;"/>
<path fill-rule="evenodd" clip-rule="evenodd" d="M49.4426 29.8864C49.089 30.0632 48.7684 30.2351 48.4925 30.3927C48.4429 30.4211 48.3917 30.4466 48.3391 30.4691C45.2728 31.7832 42.1894 32.0501 39.6614 31.8612C37.1783 31.6756 35.0768 31.0368 33.9765 30.3766L33.6005 30.1509C22.3774 36.9944 20.0693 60.1478 41.748 61.0903C63.7152 60.1352 61.0529 36.3742 49.4426 29.8864ZM41.5578 37.8403C42.2482 37.8403 42.8078 38.4 42.8078 39.0903V39.1036C45.1623 39.3477 46.9983 41.3379 46.9983 43.757C46.9983 44.4474 46.4386 45.007 45.7483 45.007C45.0579 45.007 44.4983 44.4474 44.4983 43.757C44.4983 42.7216 43.776 41.8549 42.8078 41.6333V45.0788C45.1276 45.1107 46.9983 47.0011 46.9983 49.3284C46.9983 51.6558 45.1276 53.5462 42.8078 53.578C42.8016 54.2631 42.2443 54.8165 41.5578 54.8165C40.8675 54.8165 40.3078 54.2569 40.3078 53.5665V53.4979C38.1392 53.0905 36.4983 51.1868 36.4983 48.8999C36.4983 48.2095 37.0579 47.6499 37.7483 47.6499C38.4386 47.6499 38.9983 48.2095 38.9983 48.8999C38.9983 49.7941 39.5371 50.5626 40.3078 50.8982V47.5559C38.1676 47.3355 36.4983 45.5269 36.4983 43.3284C36.4983 41.13 38.1676 39.3214 40.3078 39.101V39.0903C40.3078 38.4 40.8675 37.8403 41.5578 37.8403Z" fill="#F53D4F" style="fill:#F53D4F;fill:color(display-p3 0.9600 0.2400 0.3094);fill-opacity:1;"/>
<path d="M51.2998 29.0565C52.4619 28.5971 53.6774 28.2308 54.7472 28.0957C55.8635 27.9546 56.5562 28.0982 56.9166 28.3384C57.6059 28.798 58.5372 28.6117 58.9967 27.9224C59.4562 27.2331 59.27 26.3018 58.5807 25.8423C57.3198 25.0017 55.7373 24.9467 54.3711 25.1193C52.9584 25.2978 51.4843 25.7576 50.1968 26.2666C49.4264 26.5712 49.0488 27.4426 49.3533 28.213C49.6579 28.9834 50.5293 29.3611 51.2998 29.0565Z" fill="#F53D4F" style="fill:#F53D4F;fill:color(display-p3 0.9600 0.2400 0.3094);fill-opacity:1;"/>
</svg>
