<svg width="83" height="83" viewBox="0 0 83 83" fill="none" xmlns="http://www.w3.org/2000/svg">
<path d="M1.74829 41.0903C1.74829 18.9989 19.6569 1.09033 41.7483 1.09033C63.8397 1.09033 81.7483 18.9989 81.7483 41.0903C81.7483 63.1817 63.8397 81.0903 41.7483 81.0903C19.6569 81.0903 1.74829 63.1817 1.74829 41.0903Z" stroke="#FA9EA7" style="stroke:#FA9EA7;stroke:color(display-p3 0.9800 0.6200 0.6547);stroke-opacity:1;" stroke-width="2" stroke-linecap="round" stroke-linejoin="round" stroke-dasharray="16 8"/>
<circle cx="41.7483" cy="41.0903" r="34" fill="#FEF0F2" stroke="#FA9EA7" style="fill:#FEF0F2;fill:color(display-p3 0.9970 0.9430 0.9482);fill-opacity:1;stroke:#FA9EA7;stroke:color(display-p3 0.9800 0.6200 0.6547);stroke-opacity:1;" stroke-width="2" stroke-linecap="round" stroke-linejoin="round" stroke-dasharray="76 15"/>
<path fill-rule="evenodd" clip-rule="evenodd" d="M35.7483 23.0903H44.4346C46.5563 23.0903 48.5911 23.9332 50.0914 25.4335L53.4051 28.7472C54.9054 30.2475 55.7483 32.2823 55.7483 34.404V51.0903C55.7483 55.5086 52.1666 59.0903 47.7483 59.0903H35.7483C31.33 59.0903 27.7483 55.5086 27.7483 51.0903V31.0903C27.7483 26.6721 31.33 23.0903 35.7483 23.0903ZM40.2483 51.0903C40.2483 51.9188 40.9199 52.5903 41.7483 52.5903C42.5767 52.5903 43.2483 51.9188 43.2483 51.0903L43.2483 35.0903C43.2483 34.2619 42.5767 33.5903 41.7483 33.5903C40.9199 33.5903 40.2483 34.2619 40.2483 35.0903L40.2483 51.0903ZM33.7483 52.5903C32.9199 52.5903 32.2483 51.9188 32.2483 51.0903L32.2483 40.0903C32.2483 39.2619 32.9199 38.5903 33.7483 38.5903C34.5767 38.5903 35.2483 39.2619 35.2483 40.0903L35.2483 51.0903C35.2483 51.9188 34.5767 52.5903 33.7483 52.5903ZM48.2483 51.0903C48.2483 51.9188 48.9199 52.5903 49.7483 52.5903C50.5767 52.5903 51.2483 51.9188 51.2483 51.0903V45.0903C51.2483 44.2619 50.5767 43.5903 49.7483 43.5903C48.9199 43.5903 48.2483 44.2619 48.2483 45.0903V51.0903Z" fill="#F53D4F" style="fill:#F53D4F;fill:color(display-p3 0.9600 0.2400 0.3094);fill-opacity:1;"/>
</svg>
