<svg width="83" height="83" viewBox="0 0 83 83" fill="none" xmlns="http://www.w3.org/2000/svg">
<path d="M1.74829 41.0903C1.74829 18.9989 19.6569 1.09033 41.7483 1.09033C63.8397 1.09033 81.7483 18.9989 81.7483 41.0903C81.7483 63.1817 63.8397 81.0903 41.7483 81.0903C19.6569 81.0903 1.74829 63.1817 1.74829 41.0903Z" stroke="#FA9EA7" style="stroke:#FA9EA7;stroke:color(display-p3 0.9800 0.6200 0.6547);stroke-opacity:1;" stroke-width="2" stroke-linecap="round" stroke-linejoin="round" stroke-dasharray="16 8"/>
<circle cx="41.7483" cy="41.0903" r="34" fill="#FEF0F2" stroke="#FA9EA7" style="fill:#FEF0F2;fill:color(display-p3 0.9970 0.9430 0.9482);fill-opacity:1;stroke:#FA9EA7;stroke:color(display-p3 0.9800 0.6200 0.6547);stroke-opacity:1;" stroke-width="2" stroke-linecap="round" stroke-linejoin="round" stroke-dasharray="76 15"/>
<path d="M46.5919 39.9339C47.3521 40.1147 48.1447 40.1147 48.9049 39.9339C48.7242 40.6942 48.7242 41.4867 48.9049 42.247C48.1447 42.0662 47.3521 42.0662 46.5919 42.247C46.7726 41.4867 46.7726 40.6942 46.5919 39.9339Z" fill="#F53D4F" style="fill:#F53D4F;fill:color(display-p3 0.9600 0.2400 0.3094);fill-opacity:1;"/>
<path fill-rule="evenodd" clip-rule="evenodd" d="M34.2483 25.0903H30.153C23.7735 25.0903 19.9914 32.0639 22.9869 37.6521C23.8654 39.2908 24.4549 40.5805 24.4549 41.0903C24.4549 41.5207 23.9414 42.5069 23.1355 43.7896C19.5762 49.4546 23.2295 57.0903 29.9579 57.0903H34.2483V51.0903C34.2483 50.2619 34.9199 49.5903 35.7483 49.5903C36.5767 49.5903 37.2483 50.2619 37.2483 51.0903V57.0903H53.6849C58.1382 57.0903 61.7483 53.5086 61.7483 49.0903V33.0903C61.7483 28.6721 58.1382 25.0903 53.6849 25.0903H37.2483V31.0903C37.2483 31.9188 36.5767 32.5903 35.7483 32.5903C34.9199 32.5903 34.2483 31.9188 34.2483 31.0903V25.0903ZM35.7483 35.5903C36.5767 35.5903 37.2483 36.2619 37.2483 37.0903V45.0903C37.2483 45.9188 36.5767 46.5903 35.7483 46.5903C34.9199 46.5903 34.2483 45.9188 34.2483 45.0903V37.0903C34.2483 36.2619 34.9199 35.5903 35.7483 35.5903ZM49.9088 36.2774C51.5957 35.5018 53.3371 37.2432 52.5615 38.93L51.9523 40.2549C51.7084 40.7852 51.7084 41.3957 51.9523 41.926L52.5615 43.2509C53.3371 44.9377 51.5957 46.6791 49.9088 45.9035L48.584 45.2943C48.0536 45.0504 47.4432 45.0504 46.9129 45.2943L45.588 45.9035C43.9012 46.6791 42.1597 44.9377 42.9354 43.2509L43.5446 41.926C43.7884 41.3957 43.7884 40.7852 43.5446 40.2549L42.9354 38.93C42.1597 37.2432 43.9012 35.5018 45.588 36.2774L46.9129 36.8866C47.4432 37.1305 48.0536 37.1305 48.584 36.8866L49.9088 36.2774Z" fill="#F53D4F" style="fill:#F53D4F;fill:color(display-p3 0.9600 0.2400 0.3094);fill-opacity:1;"/>
</svg>
