<svg width="83" height="83" viewBox="0 0 83 83" fill="none" xmlns="http://www.w3.org/2000/svg">
<path d="M1.74829 41.0903C1.74829 18.9989 19.6569 1.09033 41.7483 1.09033C63.8397 1.09033 81.7483 18.9989 81.7483 41.0903C81.7483 63.1817 63.8397 81.0903 41.7483 81.0903C19.6569 81.0903 1.74829 63.1817 1.74829 41.0903Z" stroke="#FA9EA7" style="stroke:#FA9EA7;stroke:color(display-p3 0.9800 0.6200 0.6547);stroke-opacity:1;" stroke-width="2" stroke-linecap="round" stroke-linejoin="round" stroke-dasharray="16 8"/>
<circle cx="41.7483" cy="41.0903" r="34" fill="#FEF0F2" stroke="#FA9EA7" style="fill:#FEF0F2;fill:color(display-p3 0.9970 0.9430 0.9482);fill-opacity:1;stroke:#FA9EA7;stroke:color(display-p3 0.9800 0.6200 0.6547);stroke-opacity:1;" stroke-width="2" stroke-linecap="round" stroke-linejoin="round" stroke-dasharray="76 15"/>
<path d="M45.5248 21.9422C45.9451 20.8064 47.5515 20.8064 47.9718 21.9422L48.5535 23.5143C48.6857 23.8714 48.9672 24.153 49.3243 24.2851L50.8965 24.8669C52.0322 25.2871 52.0322 26.8935 50.8965 27.3138L49.3243 27.8956C48.9672 28.0277 48.6857 28.3092 48.5535 28.6663L47.9718 30.2385C47.5515 31.3743 45.9451 31.3743 45.5248 30.2385L44.9431 28.6663C44.8109 28.3092 44.5294 28.0277 44.1723 27.8956L42.6001 27.3138C41.4643 26.8935 41.4643 25.2871 42.6001 24.8669L44.1723 24.2851C44.5294 24.153 44.8109 23.8714 44.9431 23.5143L45.5248 21.9422Z" fill="#F53D4F" style="fill:#F53D4F;fill:color(display-p3 0.9600 0.2400 0.3094);fill-opacity:1;"/>
<path d="M41.7483 45.0905C41.7483 47.2996 39.9574 49.0905 37.7483 49.0905C35.5392 49.0905 33.7483 47.2996 33.7483 45.0905C33.7483 42.8813 35.5392 41.0905 37.7483 41.0905C39.9574 41.0905 41.7483 42.8813 41.7483 45.0905Z" fill="#F53D4F" style="fill:#F53D4F;fill:color(display-p3 0.9600 0.2400 0.3094);fill-opacity:1;"/>
<path fill-rule="evenodd" clip-rule="evenodd" d="M28.511 37.4911C27.7378 36.1519 28.1966 34.4394 29.5359 33.6662L31.9607 32.2662C33.2999 31.493 35.0124 31.9519 35.7856 33.2911C36.6579 34.802 38.8387 34.802 39.711 33.2911C40.4842 31.9519 42.1966 31.493 43.5359 32.2662L45.9607 33.6662C47.3 34.4394 47.7588 36.1519 46.9856 37.4911C46.1133 39.002 47.2037 40.8906 48.9483 40.8906C50.4947 40.8906 51.7483 42.1442 51.7483 43.6906V46.4906C51.7483 48.037 50.4947 49.2906 48.9483 49.2906C47.2037 49.2906 46.1133 51.1792 46.9856 52.6901C47.7588 54.0293 47.2999 55.7417 45.9607 56.5149L43.5359 57.9149C42.1966 58.6881 40.4842 58.2293 39.711 56.8901C38.8387 55.3792 36.6579 55.3792 35.7856 56.8901C35.0124 58.2293 33.3 58.6881 31.9607 57.9149L29.5359 56.5149C28.1966 55.7417 27.7378 54.0293 28.511 52.6901C29.3833 51.1792 28.2929 49.2906 26.5483 49.2906C25.0019 49.2906 23.7483 48.037 23.7483 46.4906V43.6906C23.7483 42.1442 25.0019 40.8906 26.5483 40.8906C28.2929 40.8906 29.3833 39.002 28.511 37.4911ZM44.7483 45.0905C44.7483 48.9564 41.6143 52.0905 37.7483 52.0905C33.8823 52.0905 30.7483 48.9564 30.7483 45.0905C30.7483 41.2245 33.8823 38.0905 37.7483 38.0905C41.6143 38.0905 44.7483 41.2245 44.7483 45.0905Z" fill="#F53D4F" style="fill:#F53D4F;fill:color(display-p3 0.9600 0.2400 0.3094);fill-opacity:1;"/>
<path d="M57.2165 32.1125C56.7121 30.7496 54.7845 30.7496 54.2801 32.1125L53.582 33.9992C53.4235 34.4276 53.0856 34.7655 52.6571 34.924L50.7705 35.6222C49.4076 36.1265 49.4076 38.0542 50.7705 38.5585L52.6571 39.2566C53.0856 39.4152 53.4235 39.753 53.582 40.1815L54.2801 42.0681C54.7844 43.4311 56.7121 43.4311 57.2165 42.0681L57.9146 40.1815C58.0731 39.753 58.411 39.4152 58.8395 39.2566L60.7261 38.5585C62.089 38.0542 62.089 36.1265 60.7261 35.6222L58.8395 34.924C58.411 34.7655 58.0731 34.4276 57.9146 33.9992L57.2165 32.1125Z" fill="#F53D4F" style="fill:#F53D4F;fill:color(display-p3 0.9600 0.2400 0.3094);fill-opacity:1;"/>
</svg>
