<svg width="20" height="16" viewBox="0 0 20 16" fill="none" xmlns="http://www.w3.org/2000/svg">
<path fill-rule="evenodd" clip-rule="evenodd" d="M14 8C14 10.2091 12.2091 12 10 12C7.79086 12 6 10.2091 6 8C6 5.79086 7.79086 4 10 4C12.2091 4 14 5.79086 14 8ZM12.5 8C12.5 9.38071 11.3807 10.5 10 10.5C8.61929 10.5 7.5 9.38071 7.5 8C7.5 6.61929 8.61929 5.5 10 5.5C11.3807 5.5 12.5 6.61929 12.5 8Z" fill="#5C6A70" style="fill:#5C6A70;fill:color(display-p3 0.3600 0.4160 0.4400);fill-opacity:1;"/>
<path fill-rule="evenodd" clip-rule="evenodd" d="M0.391882 8.78843C0.242745 8.27377 0.242745 7.72623 0.391882 7.21157C1.59907 3.0456 5.44284 0 9.99795 0C14.5531 0 18.3968 3.0456 19.604 7.21157C19.7532 7.72623 19.7532 8.27377 19.604 8.78843C18.3968 12.9544 14.5531 16 9.99795 16C5.44284 16 1.59907 12.9544 0.391882 8.78843ZM1.83261 7.62905C2.85899 4.08706 6.1283 1.5 9.99795 1.5C13.8676 1.5 17.1369 4.08706 18.1633 7.62905C18.2334 7.87101 18.2334 8.12899 18.1633 8.37095C17.1369 11.9129 13.8676 14.5 9.99795 14.5C6.1283 14.5 2.85899 11.9129 1.83261 8.37095C1.7625 8.12899 1.7625 7.871 1.83261 7.62905Z" fill="#5C6A70" style="fill:#5C6A70;fill:color(display-p3 0.3600 0.4160 0.4400);fill-opacity:1;"/>
</svg>
