<svg width="20" height="21" viewBox="0 0 20 21" fill="none" xmlns="http://www.w3.org/2000/svg">
<path fill-rule="evenodd" clip-rule="evenodd" d="M0.803847 3.91992C0 5.31223 0 7.18146 0 10.9199C0 14.6584 0 16.5276 0.803847 17.9199C1.33046 18.832 2.08788 19.5895 3 20.1161C4.3923 20.9199 6.26154 20.9199 10 20.9199C13.7385 20.9199 15.6077 20.9199 17 20.1161C17.9121 19.5895 18.6695 18.832 19.1962 17.9199C20 16.5276 20 14.6584 20 10.9199C20 7.18146 20 5.31223 19.1962 3.91992C18.6695 3.00781 17.9121 2.25038 17 1.72377C15.6077 0.919922 13.7385 0.919922 10 0.919922C6.26154 0.919922 4.3923 0.919922 3 1.72377C2.08788 2.25038 1.33046 3.00781 0.803847 3.91992ZM11.2826 8.90726C11.2826 8.17321 11.8958 7.57815 12.6522 7.57815H15V4.91992H12.6522C10.383 4.91992 8.54348 6.70512 8.54348 8.90726V10.9959H6V13.6541H8.54348V19.9199H11.2826V13.6541H14.2174L14.6087 10.9959H11.2826V8.90726Z" fill="white" style="fill:white;fill-opacity:1;"/>
</svg>
