<svg width="424" height="68" viewBox="0 0 424 68" fill="none" xmlns="http://www.w3.org/2000/svg">
<g clip-path="url(#clip0_1412_4760)">
<path d="M0 12C0 5.37258 5.37258 0 12 0H412C418.627 0 424 5.37258 424 12V56C424 62.6274 418.627 68 412 68H12C5.37259 68 0 62.6274 0 56V12Z" fill="white" style="fill:white;fill-opacity:1;"/>
<rect width="68" height="68" fill="white" style="fill:white;fill-opacity:1;"/>
<g clip-path="url(#clip1_1412_4760)">
<path d="M46 34C46 27.376 40.624 22 34 22C27.376 22 22 27.376 22 34C22 39.808 26.128 44.644 31.6 45.76V37.6H29.2V34H31.6V31C31.6 28.684 33.484 26.8 35.8 26.8H38.8V30.4H36.4C35.74 30.4 35.2 30.94 35.2 31.6V34H38.8V37.6H35.2V45.94C41.26 45.34 46 40.228 46 34Z" fill="#1877F2" style="fill:#1877F2;fill:color(display-p3 0.0941 0.4667 0.9490);fill-opacity:1;"/>
</g>
<path d="M88.1953 39.5V29.9219H84.7266V28.2266H93.6875V29.9219H90.2109V39.5H88.1953ZM95.7969 39.5V28.2266H97.8125V39.5H95.7969ZM105.188 25.7578L106.336 24.2656H107.805L106.227 25.7578H105.188ZM103.547 26.125H104.93L106.555 27.7031H105.141L104.234 26.8047L103.344 27.7031H101.93L103.547 26.125ZM100.594 39.5V28.2266H107.891V29.9219H102.609V32.9766H107.602V34.5781H102.609V37.8047H107.891V39.5H100.594ZM110.391 39.5V28.2266H114.891C117.18 28.2266 118.727 29.7344 118.727 31.9922V32.0078C118.727 34.2578 117.18 35.7734 114.891 35.7734H112.406V39.5H110.391ZM114.398 29.875H112.406V34.1484H114.398C115.844 34.1484 116.688 33.3672 116.688 32.0156V32C116.688 30.6484 115.844 29.875 114.398 29.875ZM128.023 39.5V29.9219H124.555V28.2266H133.516V29.9219H130.039V39.5H128.023ZM140.25 39.7812C137.398 39.7812 135.617 38.1016 135.617 35.6172V28.2266H137.633V35.4531C137.633 37.0078 138.578 38.0391 140.258 38.0391C141.93 38.0391 142.867 37.0078 142.867 35.4531V28.2266H144.883V35.6172C144.883 38.1016 143.117 39.7812 140.25 39.7812ZM140.25 43.1562C139.625 43.1562 139.117 42.6562 139.117 42.0312C139.117 41.4141 139.625 40.9062 140.25 40.9062C140.875 40.9062 141.383 41.4141 141.383 42.0312C141.383 42.6562 140.875 43.1562 140.25 43.1562ZM152.359 39.7812C149.164 39.7812 147.18 37.5156 147.18 33.875V33.8594C147.18 30.2031 149.156 27.9453 152.352 27.9453C154.914 27.9453 156.859 29.5703 157.125 31.875V31.9375H155.148L155.141 31.9062C154.852 30.5703 153.773 29.6875 152.352 29.6875C150.438 29.6875 149.242 31.2891 149.242 33.8516V33.8672C149.242 36.4375 150.438 38.0391 152.359 38.0391C153.789 38.0391 154.852 37.2422 155.141 36L155.148 35.9609H157.125V36.0156C156.828 38.2734 154.961 39.7812 152.359 39.7812ZM166.703 39.5L162.805 28.2266H165.023L167.812 37.1719H167.945L170.734 28.2266H172.961L169.062 39.5H166.703ZM179.602 27.1016H178.188L179.477 24.5078H181.398L179.602 27.1016ZM179.391 39.7812C176.086 39.7812 174.055 37.4922 174.055 33.8672V33.8516C174.055 30.2188 176.117 27.9453 179.391 27.9453C182.031 27.8906 182.641 27.2031 182.703 25.6562H184.359C184.305 27.375 183.711 28.2734 182.289 28.7031C183.828 29.6562 184.719 31.4609 184.719 33.8516V33.8672C184.719 37.4922 182.68 39.7812 179.391 39.7812ZM179.391 38.0391C181.398 38.0391 182.664 36.3984 182.664 33.8672V33.8516C182.664 31.3047 181.391 29.6875 179.391 29.6875C177.391 29.6875 176.109 31.3047 176.109 33.8516V33.8672C176.109 36.3984 177.359 38.0391 179.391 38.0391ZM187.031 39.5V28.2266H189.047V39.5H187.031ZM196.094 39.5V28.2266H203.281V29.9219H198.109V33.2578H202.836V34.8984H198.109V39.5H196.094ZM204.086 39.5L208.086 28.2266H210.359L214.359 39.5H212.25L211.305 36.5859H207.133L206.195 39.5H204.086ZM209.156 30.3203L207.641 35.0312H210.805L209.289 30.3203H209.156ZM220.469 39.7812C217.273 39.7812 215.289 37.5156 215.289 33.875V33.8594C215.289 30.2031 217.266 27.9453 220.461 27.9453C223.023 27.9453 224.969 29.5703 225.234 31.875V31.9375H223.258L223.25 31.9062C222.961 30.5703 221.883 29.6875 220.461 29.6875C218.547 29.6875 217.352 31.2891 217.352 33.8516V33.8672C217.352 36.4375 218.547 38.0391 220.469 38.0391C221.898 38.0391 222.961 37.2422 223.25 36L223.258 35.9609H225.234V36.0156C224.938 38.2734 223.07 39.7812 220.469 39.7812ZM227.484 39.5V28.2266H234.781V29.9219H229.5V32.9766H234.492V34.5781H229.5V37.8047H234.781V39.5H227.484ZM237.281 39.5V28.2266H241.992C244.133 28.2266 245.422 29.3047 245.422 31.0312V31.0469C245.422 32.2266 244.547 33.2734 243.414 33.4531V33.5938C244.93 33.7344 245.977 34.8281 245.977 36.2891V36.3047C245.977 38.2812 244.508 39.5 242.102 39.5H237.281ZM241.5 29.7969H239.297V32.9766H241.242C242.672 32.9766 243.43 32.4219 243.43 31.3984V31.3828C243.43 30.3828 242.719 29.7969 241.5 29.7969ZM241.562 34.4062H239.297V37.9297H241.641C243.125 37.9297 243.914 37.3125 243.914 36.1641V36.1484C243.914 35.0078 243.102 34.4062 241.562 34.4062ZM253.031 39.7812C249.727 39.7812 247.695 37.4922 247.695 33.8672V33.8516C247.695 30.2188 249.758 27.9453 253.031 27.9453C256.312 27.9453 258.359 30.2188 258.359 33.8516V33.8672C258.359 37.4922 256.32 39.7812 253.031 39.7812ZM253.031 38.0391C255.039 38.0391 256.305 36.3984 256.305 33.8672V33.8516C256.305 31.3047 255.031 29.6875 253.031 29.6875C251.031 29.6875 249.75 31.3047 249.75 33.8516V33.8672C249.75 36.3984 251 38.0391 253.031 38.0391ZM265.531 39.7812C262.227 39.7812 260.195 37.4922 260.195 33.8672V33.8516C260.195 30.2188 262.258 27.9453 265.531 27.9453C268.812 27.9453 270.859 30.2188 270.859 33.8516V33.8672C270.859 37.4922 268.82 39.7812 265.531 39.7812ZM265.531 38.0391C267.539 38.0391 268.805 36.3984 268.805 33.8672V33.8516C268.805 31.3047 267.531 29.6875 265.531 29.6875C263.531 29.6875 262.25 31.3047 262.25 33.8516V33.8672C262.25 36.3984 263.5 38.0391 265.531 38.0391ZM273.172 39.5V28.2266H275.188V33.4375H275.32L279.766 28.2266H282.078L277.828 33.1406L282.414 39.5H279.953L276.391 34.4766L275.188 35.875V39.5H273.172Z" fill="#0A6EE1" style="fill:#0A6EE1;fill:color(display-p3 0.0379 0.4319 0.8821);fill-opacity:1;"/>
</g>
<path d="M0.5 12C0.5 5.64873 5.64873 0.5 12 0.5H412C418.351 0.5 423.5 5.64873 423.5 12V56C423.5 62.3513 418.351 67.5 412 67.5H12C5.64873 67.5 0.5 62.3513 0.5 56V12Z" stroke="#1877F2" style="stroke:#1877F2;stroke:color(display-p3 0.0941 0.4667 0.9490);stroke-opacity:1;"/>
<defs>
<clipPath id="clip0_1412_4760">
<path d="M0 12C0 5.37258 5.37258 0 12 0H412C418.627 0 424 5.37258 424 12V56C424 62.6274 418.627 68 412 68H12C5.37259 68 0 62.6274 0 56V12Z" fill="white" style="fill:white;fill-opacity:1;"/>
</clipPath>
<clipPath id="clip1_1412_4760">
<rect width="24" height="24" fill="white" style="fill:white;fill-opacity:1;" transform="translate(22 22)"/>
</clipPath>
</defs>
</svg>
