<svg width="52" height="53" viewBox="0 0 52 53" fill="none" xmlns="http://www.w3.org/2000/svg">
<path d="M0 26.0903C0 11.7309 11.6406 0.090332 26 0.090332C40.3594 0.090332 52 11.7309 52 26.0903C52 40.4497 40.3594 52.0903 26 52.0903C11.6406 52.0903 0 40.4497 0 26.0903Z" fill="#FEF0F2" style="fill:#FEF0F2;fill:color(display-p3 0.9970 0.9430 0.9482);fill-opacity:1;"/>
<path d="M21.6805 17.1324L21.8478 17.2329C22.2254 17.4594 23.2909 17.8335 24.7578 17.9431C26.1804 18.0494 27.8828 17.8982 29.5559 17.1925C29.8139 17.0468 30.1182 16.8868 30.4552 16.7242L31.3331 14.0903L28.6662 15.4237L25.9998 14.0903L23.3333 15.4237L20.6664 14.0903L21.6805 17.1324Z" fill="#F53D4F" style="fill:#F53D4F;fill:color(display-p3 0.9600 0.2400 0.3094);fill-opacity:1;"/>
<path d="M25.0397 26.453C24.5375 26.5832 24.1667 27.0395 24.1667 27.5824C24.1667 28.1253 24.5375 28.5816 25.0397 28.7118V26.453Z" fill="#F53D4F" style="fill:#F53D4F;fill:color(display-p3 0.9600 0.2400 0.3094);fill-opacity:1;"/>
<path d="M26.7063 32.7484C27.3323 32.7275 27.8333 32.2134 27.8333 31.5824C27.8333 30.9513 27.3323 30.4373 26.7063 30.4164V32.7484Z" fill="#F53D4F" style="fill:#F53D4F;fill:color(display-p3 0.9600 0.2400 0.3094);fill-opacity:1;"/>
<path fill-rule="evenodd" clip-rule="evenodd" d="M31.1295 18.6211C30.8938 18.7389 30.68 18.8535 30.4961 18.9586C30.463 18.9775 30.4289 18.9945 30.3939 19.0095C28.3496 19.8856 26.294 20.0635 24.6087 19.9376C22.9533 19.8138 21.5523 19.388 20.8188 18.9478L20.5681 18.7974C13.0861 23.3597 11.5473 38.7953 25.9998 39.4237C40.6446 38.7869 38.8697 22.9462 31.1295 18.6211ZM25.873 23.9237C26.3332 23.9237 26.7063 24.2968 26.7063 24.757V24.7658C28.276 24.9285 29.5 26.2554 29.5 27.8681C29.5 28.3283 29.1269 28.7014 28.6667 28.7014C28.2064 28.7014 27.8333 28.3283 27.8333 27.8681C27.8333 27.1779 27.3518 26.6001 26.7063 26.4523V28.7493C28.2529 28.7706 29.5 30.0308 29.5 31.5824C29.5 33.134 28.2528 34.3942 26.7063 34.4155C26.7022 34.8722 26.3307 35.2411 25.873 35.2411C25.4128 35.2411 25.0397 34.868 25.0397 34.4078V34.362C23.5939 34.0904 22.5 32.8213 22.5 31.2967C22.5 30.8364 22.8731 30.4633 23.3333 30.4633C23.7936 30.4633 24.1667 30.8364 24.1667 31.2967C24.1667 31.8929 24.5259 32.4051 25.0397 32.6289V30.4007C23.6128 30.2538 22.5 29.048 22.5 27.5824C22.5 26.1167 23.6128 24.911 25.0397 24.7641V24.757C25.0397 24.2968 25.4128 23.9237 25.873 23.9237Z" fill="#F53D4F" style="fill:#F53D4F;fill:color(display-p3 0.9600 0.2400 0.3094);fill-opacity:1;"/>
<path d="M32.3676 18.0678C33.1424 17.7615 33.9527 17.5173 34.6659 17.4272C35.4101 17.3332 35.872 17.4289 36.1122 17.5891C36.5717 17.8954 37.1926 17.7712 37.4989 17.3117C37.8053 16.8522 37.6811 16.2313 37.2216 15.925C36.381 15.3646 35.326 15.3279 34.4152 15.443C33.4734 15.562 32.4907 15.8685 31.6323 16.2079C31.1187 16.4109 30.867 16.9919 31.07 17.5055C31.2731 18.0191 31.854 18.2708 32.3676 18.0678Z" fill="#F53D4F" style="fill:#F53D4F;fill:color(display-p3 0.9600 0.2400 0.3094);fill-opacity:1;"/>
</svg>
