<svg width="424" height="68" viewBox="0 0 424 68" fill="none" xmlns="http://www.w3.org/2000/svg">
<g clip-path="url(#clip0_1412_4877)">
<path d="M0 12C0 5.37258 5.37258 0 12 0H412C418.627 0 424 5.37258 424 12V56C424 62.6274 418.627 68 412 68H12C5.37259 68 0 62.6274 0 56V12Z" fill="white" style="fill:white;fill-opacity:1;"/>
<rect width="68" height="68" fill="white" style="fill:white;fill-opacity:1;"/>
<path fill-rule="evenodd" clip-rule="evenodd" d="M45.52 34.2729C45.52 33.422 45.4436 32.6038 45.3018 31.8184H34V36.4602H40.4582C40.18 37.9602 39.3345 39.2311 38.0636 40.082V43.0929H41.9418C44.2109 41.0038 45.52 37.9274 45.52 34.2729Z" fill="#4285F4" style="fill:#4285F4;fill:color(display-p3 0.2588 0.5216 0.9569);fill-opacity:1;"/>
<path fill-rule="evenodd" clip-rule="evenodd" d="M34 45.9998C37.24 45.9998 39.9564 44.9252 41.9418 43.0925L38.0636 40.0816C36.9891 40.8016 35.6145 41.2271 34 41.2271C30.8745 41.2271 28.2291 39.1161 27.2855 36.2798H23.2764V39.3889C25.2509 43.3107 29.3091 45.9998 34 45.9998Z" fill="#34A853" style="fill:#34A853;fill:color(display-p3 0.2039 0.6588 0.3255);fill-opacity:1;"/>
<path fill-rule="evenodd" clip-rule="evenodd" d="M27.2855 36.2799C27.0455 35.5599 26.9091 34.7908 26.9091 33.9999C26.9091 33.209 27.0455 32.4399 27.2855 31.7199V28.6108H23.2764C22.4636 30.2308 22 32.0636 22 33.9999C22 35.9363 22.4636 37.769 23.2764 39.389L27.2855 36.2799Z" fill="#FBBC05" style="fill:#FBBC05;fill:color(display-p3 0.9843 0.7373 0.0196);fill-opacity:1;"/>
<path fill-rule="evenodd" clip-rule="evenodd" d="M34 26.7727C35.7618 26.7727 37.3436 27.3782 38.5873 28.5673L42.0291 25.1255C39.9509 23.1891 37.2345 22 34 22C29.3091 22 25.2509 24.6891 23.2764 28.6109L27.2855 31.72C28.2291 28.8836 30.8745 26.7727 34 26.7727Z" fill="#EA4335" style="fill:#EA4335;fill:color(display-p3 0.9176 0.2627 0.2078);fill-opacity:1;"/>
<rect width="356" height="68" transform="translate(68)" fill="#4285F4" style="fill:#4285F4;fill:color(display-p3 0.2588 0.5216 0.9569);fill-opacity:1;"/>
<path d="M88.1953 39.5V29.9219H84.7266V28.2266H93.6875V29.9219H90.2109V39.5H88.1953ZM95.7969 39.5V28.2266H97.8125V39.5H95.7969ZM105.188 25.7578L106.336 24.2656H107.805L106.227 25.7578H105.188ZM103.547 26.125H104.93L106.555 27.7031H105.141L104.234 26.8047L103.344 27.7031H101.93L103.547 26.125ZM100.594 39.5V28.2266H107.891V29.9219H102.609V32.9766H107.602V34.5781H102.609V37.8047H107.891V39.5H100.594ZM110.391 39.5V28.2266H114.891C117.18 28.2266 118.727 29.7344 118.727 31.9922V32.0078C118.727 34.2578 117.18 35.7734 114.891 35.7734H112.406V39.5H110.391ZM114.398 29.875H112.406V34.1484H114.398C115.844 34.1484 116.688 33.3672 116.688 32.0156V32C116.688 30.6484 115.844 29.875 114.398 29.875ZM128.023 39.5V29.9219H124.555V28.2266H133.516V29.9219H130.039V39.5H128.023ZM140.25 39.7812C137.398 39.7812 135.617 38.1016 135.617 35.6172V28.2266H137.633V35.4531C137.633 37.0078 138.578 38.0391 140.258 38.0391C141.93 38.0391 142.867 37.0078 142.867 35.4531V28.2266H144.883V35.6172C144.883 38.1016 143.117 39.7812 140.25 39.7812ZM140.25 43.1562C139.625 43.1562 139.117 42.6562 139.117 42.0312C139.117 41.4141 139.625 40.9062 140.25 40.9062C140.875 40.9062 141.383 41.4141 141.383 42.0312C141.383 42.6562 140.875 43.1562 140.25 43.1562ZM152.359 39.7812C149.164 39.7812 147.18 37.5156 147.18 33.875V33.8594C147.18 30.2031 149.156 27.9453 152.352 27.9453C154.914 27.9453 156.859 29.5703 157.125 31.875V31.9375H155.148L155.141 31.9062C154.852 30.5703 153.773 29.6875 152.352 29.6875C150.438 29.6875 149.242 31.2891 149.242 33.8516V33.8672C149.242 36.4375 150.438 38.0391 152.359 38.0391C153.789 38.0391 154.852 37.2422 155.141 36L155.148 35.9609H157.125V36.0156C156.828 38.2734 154.961 39.7812 152.359 39.7812ZM166.703 39.5L162.805 28.2266H165.023L167.812 37.1719H167.945L170.734 28.2266H172.961L169.062 39.5H166.703ZM179.602 27.1016H178.188L179.477 24.5078H181.398L179.602 27.1016ZM179.391 39.7812C176.086 39.7812 174.055 37.4922 174.055 33.8672V33.8516C174.055 30.2188 176.117 27.9453 179.391 27.9453C182.031 27.8906 182.641 27.2031 182.703 25.6562H184.359C184.305 27.375 183.711 28.2734 182.289 28.7031C183.828 29.6562 184.719 31.4609 184.719 33.8516V33.8672C184.719 37.4922 182.68 39.7812 179.391 39.7812ZM179.391 38.0391C181.398 38.0391 182.664 36.3984 182.664 33.8672V33.8516C182.664 31.3047 181.391 29.6875 179.391 29.6875C177.391 29.6875 176.109 31.3047 176.109 33.8516V33.8672C176.109 36.3984 177.359 38.0391 179.391 38.0391ZM187.031 39.5V28.2266H189.047V39.5H187.031ZM200.914 39.7812C197.648 39.7812 195.617 37.5078 195.617 33.8672V33.8516C195.617 30.25 197.672 27.9453 200.883 27.9453C203.484 27.9453 205.359 29.4375 205.742 31.6406L205.75 31.7188H203.75L203.727 31.6406C203.359 30.4062 202.328 29.6875 200.883 29.6875C198.914 29.6875 197.672 31.2891 197.672 33.8359V33.8516C197.672 36.4375 198.938 38.0391 200.945 38.0391C202.664 38.0391 203.836 36.9688 203.859 35.3672L203.867 35.1328H201.164V33.5938H205.844V35C205.844 37.9141 203.922 39.7812 200.914 39.7812ZM213.047 39.7812C209.742 39.7812 207.711 37.4922 207.711 33.8672V33.8516C207.711 30.2188 209.773 27.9453 213.047 27.9453C216.328 27.9453 218.375 30.2188 218.375 33.8516V33.8672C218.375 37.4922 216.336 39.7812 213.047 39.7812ZM213.047 38.0391C215.055 38.0391 216.32 36.3984 216.32 33.8672V33.8516C216.32 31.3047 215.047 29.6875 213.047 29.6875C211.047 29.6875 209.766 31.3047 209.766 33.8516V33.8672C209.766 36.3984 211.016 38.0391 213.047 38.0391ZM225.547 39.7812C222.242 39.7812 220.211 37.4922 220.211 33.8672V33.8516C220.211 30.2188 222.273 27.9453 225.547 27.9453C228.828 27.9453 230.875 30.2188 230.875 33.8516V33.8672C230.875 37.4922 228.836 39.7812 225.547 39.7812ZM225.547 38.0391C227.555 38.0391 228.82 36.3984 228.82 33.8672V33.8516C228.82 31.3047 227.547 29.6875 225.547 29.6875C223.547 29.6875 222.266 31.3047 222.266 33.8516V33.8672C222.266 36.3984 223.516 38.0391 225.547 38.0391ZM238.008 39.7812C234.742 39.7812 232.711 37.5078 232.711 33.8672V33.8516C232.711 30.25 234.766 27.9453 237.977 27.9453C240.578 27.9453 242.453 29.4375 242.836 31.6406L242.844 31.7188H240.844L240.82 31.6406C240.453 30.4062 239.422 29.6875 237.977 29.6875C236.008 29.6875 234.766 31.2891 234.766 33.8359V33.8516C234.766 36.4375 236.031 38.0391 238.039 38.0391C239.758 38.0391 240.93 36.9688 240.953 35.3672L240.961 35.1328H238.258V33.5938H242.938V35C242.938 37.9141 241.016 39.7812 238.008 39.7812ZM245.281 39.5V28.2266H247.297V37.8047H252.469V39.5H245.281ZM254.641 39.5V28.2266H261.938V29.9219H256.656V32.9766H261.648V34.5781H256.656V37.8047H261.938V39.5H254.641Z" fill="white" style="fill:white;fill-opacity:1;"/>
</g>
<path d="M0.5 12C0.5 5.64873 5.64873 0.5 12 0.5H412C418.351 0.5 423.5 5.64873 423.5 12V56C423.5 62.3513 418.351 67.5 412 67.5H12C5.64873 67.5 0.5 62.3513 0.5 56V12Z" stroke="#4285F4" style="stroke:#4285F4;stroke:color(display-p3 0.2588 0.5216 0.9569);stroke-opacity:1;"/>
<defs>
<clipPath id="clip0_1412_4877">
<path d="M0 12C0 5.37258 5.37258 0 12 0H412C418.627 0 424 5.37258 424 12V56C424 62.6274 418.627 68 412 68H12C5.37259 68 0 62.6274 0 56V12Z" fill="white" style="fill:white;fill-opacity:1;"/>
</clipPath>
</defs>
</svg>
