<svg width="297" height="68" viewBox="0 0 297 68" fill="none" xmlns="http://www.w3.org/2000/svg">
<rect x="0.5" y="0.5" width="296" height="67" rx="5.5" fill="black" style="fill:black;fill-opacity:1;"/>
<rect x="0.5" y="0.5" width="296" height="67" rx="5.5" stroke="#A6A6A6" style="stroke:#A6A6A6;stroke:color(display-p3 0.6510 0.6510 0.6510);stroke-opacity:1;"/>
<path fill-rule="evenodd" clip-rule="evenodd" d="M93.435 21.5471C93.144 21.8551 92.973 22.3321 92.973 22.9511V45.0491C92.973 45.6681 93.144 46.1451 93.435 46.4531L93.509 46.5251L105.888 34.1461V33.8541L93.509 21.4751L93.435 21.5471Z" fill="#00D7FE" style="fill:#00D7FE;fill:color(display-p3 0.0000 0.8431 0.9961);fill-opacity:1;"/>
<mask id="mask0_2012_932" style="mask-type:alpha" maskUnits="userSpaceOnUse" x="105" y="29" width="12" height="10">
<path d="M110.013 38.2741L105.888 34.1461V33.8541L110.015 29.7271L114.997 32.5571C116.393 33.3511 116.393 34.6491 114.997 35.4421L110.108 38.2201L110.013 38.2741Z" fill="white" style="fill:white;fill-opacity:1;"/>
</mask>
<g mask="url(#mask0_2012_932)">
<path fill-rule="evenodd" clip-rule="evenodd" d="M110.013 38.2741L105.888 34.1461V33.8541L110.015 29.7271L114.997 32.5571C116.393 33.3511 116.393 34.6491 114.997 35.4421L110.108 38.2201L110.013 38.2741Z" fill="url(#paint0_linear_2012_932)" style=""/>
</g>
<mask id="mask1_2012_932" style="mask-type:alpha" maskUnits="userSpaceOnUse" x="93" y="34" width="18" height="13">
<path d="M110.108 38.22L105.888 34L93.435 46.453C93.896 46.94 94.656 47 95.512 46.514L110.108 38.22Z" fill="white" style="fill:white;fill-opacity:1;"/>
</mask>
<g mask="url(#mask1_2012_932)">
<path fill-rule="evenodd" clip-rule="evenodd" d="M110.108 38.22L105.888 34L93.435 46.453C93.896 46.94 94.656 47 95.512 46.514L110.108 38.22Z" fill="url(#paint1_linear_2012_932)" style=""/>
</g>
<mask id="mask2_2012_932" style="mask-type:alpha" maskUnits="userSpaceOnUse" x="93" y="21" width="18" height="13">
<path d="M110.108 29.7802L95.512 21.4862C94.656 21.0002 93.896 21.0602 93.435 21.5472L105.888 34.0002L110.108 29.7802Z" fill="white" style="fill:white;fill-opacity:1;"/>
</mask>
<g mask="url(#mask2_2012_932)">
<path fill-rule="evenodd" clip-rule="evenodd" d="M110.108 29.7802L95.512 21.4862C94.656 21.0002 93.896 21.0602 93.435 21.5472L105.888 34.0002L110.108 29.7802Z" fill="url(#paint2_linear_2012_932)" style=""/>
</g>
<path fill-rule="evenodd" clip-rule="evenodd" d="M187.894 44.953H189.76V32.452H187.894V44.953ZM204.701 36.955L202.562 42.375H202.498L200.278 36.955H198.268L201.597 44.53L199.699 48.744H201.646L206.776 36.955H204.701ZM194.119 43.533C193.507 43.533 192.655 43.228 192.655 42.472C192.655 41.507 193.717 41.137 194.633 41.137C195.454 41.137 195.839 41.314 196.338 41.555C196.193 42.713 195.196 43.533 194.119 43.533ZM194.344 36.682C192.993 36.682 191.594 37.277 191.015 38.596L192.671 39.287C193.025 38.596 193.684 38.37 194.376 38.37C195.341 38.37 196.322 38.949 196.338 39.979V40.107C196 39.914 195.277 39.625 194.392 39.625C192.607 39.625 190.789 40.606 190.789 42.439C190.789 44.112 192.253 45.19 193.893 45.19C195.148 45.19 195.839 44.627 196.274 43.967H196.338V44.932H198.139V40.14C198.139 37.92 196.483 36.682 194.344 36.682ZM182.812 38.477H180.158V34.192H182.812C184.207 34.192 184.999 35.347 184.999 36.334C184.999 37.303 184.207 38.477 182.812 38.477ZM182.764 32.452H178.293V44.953H180.158V40.217H182.764C184.832 40.217 186.865 38.719 186.865 36.334C186.865 33.949 184.832 32.452 182.764 32.452ZM158.383 43.535C157.094 43.535 156.015 42.456 156.015 40.974C156.015 39.476 157.094 38.38 158.383 38.38C159.656 38.38 160.654 39.476 160.654 40.974C160.654 42.456 159.656 43.535 158.383 43.535ZM160.525 37.655H160.461C160.042 37.156 159.237 36.705 158.222 36.705C156.095 36.705 154.146 38.573 154.146 40.974C154.146 43.358 156.095 45.211 158.222 45.211C159.237 45.211 160.042 44.76 160.461 44.244H160.525V44.856C160.525 46.484 159.656 47.354 158.254 47.354C157.11 47.354 156.401 46.532 156.111 45.839L154.484 46.516C154.951 47.644 156.192 49.029 158.254 49.029C160.445 49.029 162.298 47.74 162.298 44.599V36.962H160.525V37.655ZM163.587 44.953H165.456V32.451H163.587V44.953ZM168.21 40.829C168.162 39.186 169.483 38.348 170.433 38.348C171.175 38.348 171.803 38.718 172.012 39.25L168.21 40.829ZM174.01 39.411C173.656 38.461 172.576 36.705 170.369 36.705C168.178 36.705 166.358 38.428 166.358 40.958C166.358 43.342 168.162 45.211 170.578 45.211C172.528 45.211 173.656 44.019 174.123 43.326L172.673 42.359C172.19 43.068 171.529 43.535 170.578 43.535C169.628 43.535 168.951 43.1 168.516 42.247L174.203 39.895L174.01 39.411ZM128.702 38.01V39.814H133.019C132.89 40.829 132.552 41.57 132.037 42.086C131.408 42.714 130.425 43.406 128.702 43.406C126.044 43.406 123.965 41.264 123.965 38.606C123.965 35.947 126.044 33.805 128.702 33.805C130.136 33.805 131.183 34.369 131.956 35.094L133.229 33.821C132.149 32.79 130.716 32 128.702 32C125.061 32 122 34.965 122 38.606C122 42.247 125.061 45.211 128.702 45.211C130.667 45.211 132.149 44.567 133.309 43.358C134.501 42.166 134.872 40.491 134.872 39.137C134.872 38.718 134.84 38.332 134.775 38.01H128.702ZM139.781 43.535C138.492 43.535 137.38 42.472 137.38 40.958C137.38 39.427 138.492 38.38 139.781 38.38C141.069 38.38 142.181 39.427 142.181 40.958C142.181 42.472 141.069 43.535 139.781 43.535ZM139.781 36.705C137.428 36.705 135.511 38.493 135.511 40.958C135.511 43.406 137.428 45.211 139.781 45.211C142.133 45.211 144.05 43.406 144.05 40.958C144.05 38.493 142.133 36.705 139.781 36.705ZM149.094 43.535C147.805 43.535 146.693 42.472 146.693 40.958C146.693 39.427 147.805 38.38 149.094 38.38C150.383 38.38 151.494 39.427 151.494 40.958C151.494 42.472 150.383 43.535 149.094 43.535ZM149.094 36.705C146.742 36.705 144.825 38.493 144.825 40.958C144.825 43.406 146.742 45.211 149.094 45.211C151.446 45.211 153.363 43.406 153.363 40.958C153.363 38.493 151.446 36.705 149.094 36.705Z" fill="#FFFFFE" style="fill:#FFFFFE;fill:color(display-p3 1.0000 1.0000 0.9961);fill-opacity:1;"/>
<path d="M127.471 24.814V27.1562C127.392 27.2734 127.266 27.4053 127.093 27.5518C126.92 27.6953 126.682 27.8213 126.377 27.9297C126.075 28.0352 125.686 28.0879 125.208 28.0879C124.818 28.0879 124.459 28.0205 124.131 27.8857C123.806 27.748 123.523 27.5488 123.283 27.2881C123.046 27.0244 122.861 26.7051 122.729 26.3301C122.601 25.9521 122.536 25.5244 122.536 25.0469V24.5503C122.536 24.0728 122.592 23.6465 122.703 23.2715C122.817 22.8965 122.984 22.5786 123.204 22.3179C123.424 22.0542 123.693 21.855 124.013 21.7202C124.332 21.5825 124.698 21.5137 125.111 21.5137C125.601 21.5137 126.009 21.5986 126.337 21.7686C126.668 21.9355 126.926 22.167 127.111 22.4629C127.298 22.7588 127.418 23.0957 127.471 23.4736H126.623C126.585 23.2422 126.509 23.0312 126.395 22.8408C126.283 22.6504 126.124 22.498 125.916 22.3838C125.708 22.2666 125.439 22.208 125.111 22.208C124.815 22.208 124.559 22.2622 124.342 22.3706C124.125 22.479 123.947 22.6343 123.806 22.8364C123.666 23.0386 123.56 23.2832 123.49 23.5703C123.422 23.8574 123.389 24.1812 123.389 24.5415V25.0469C123.389 25.416 123.431 25.7456 123.516 26.0356C123.604 26.3257 123.729 26.5732 123.89 26.7783C124.051 26.9805 124.243 27.1343 124.465 27.2397C124.691 27.3452 124.94 27.3979 125.212 27.3979C125.514 27.3979 125.759 27.373 125.946 27.3232C126.134 27.2705 126.28 27.209 126.386 27.1387C126.491 27.0654 126.572 26.9966 126.627 26.9321V25.4995H125.146V24.814H127.471ZM132.672 27.3101V28H129.284V27.3101H132.672ZM129.456 21.6016V28H128.607V21.6016H129.456ZM132.224 24.3525V25.0425H129.284V24.3525H132.224ZM132.628 21.6016V22.2959H129.284V21.6016H132.628ZM135.905 21.6016V28H135.07V21.6016H135.905ZM137.961 21.6016V22.2959H133.018V21.6016H137.961ZM141.337 21.6016V28H140.489V21.6016H141.337ZM144.842 21.6016V28H144.007V21.6016H144.842ZM146.899 21.6016V22.2959H141.955V21.6016H146.899ZM154.291 24.5986V25.0029C154.291 25.4834 154.231 25.9141 154.11 26.2949C153.99 26.6758 153.818 26.9995 153.592 27.2661C153.366 27.5327 153.095 27.7363 152.779 27.877C152.465 28.0176 152.114 28.0879 151.724 28.0879C151.346 28.0879 150.999 28.0176 150.683 27.877C150.369 27.7363 150.097 27.5327 149.865 27.2661C149.637 26.9995 149.46 26.6758 149.334 26.2949C149.208 25.9141 149.145 25.4834 149.145 25.0029V24.5986C149.145 24.1182 149.206 23.689 149.329 23.311C149.455 22.9302 149.632 22.6064 149.861 22.3398C150.089 22.0703 150.36 21.8652 150.674 21.7246C150.99 21.584 151.338 21.5137 151.715 21.5137C152.105 21.5137 152.457 21.584 152.77 21.7246C153.087 21.8652 153.358 22.0703 153.583 22.3398C153.812 22.6064 153.986 22.9302 154.106 23.311C154.229 23.689 154.291 24.1182 154.291 24.5986ZM153.451 25.0029V24.5898C153.451 24.209 153.412 23.8721 153.333 23.5791C153.256 23.2861 153.144 23.04 152.994 22.8408C152.845 22.6416 152.662 22.4907 152.445 22.3882C152.231 22.2856 151.988 22.2344 151.715 22.2344C151.452 22.2344 151.213 22.2856 150.999 22.3882C150.788 22.4907 150.607 22.6416 150.454 22.8408C150.305 23.04 150.189 23.2861 150.107 23.5791C150.025 23.8721 149.984 24.209 149.984 24.5898V25.0029C149.984 25.3867 150.025 25.7266 150.107 26.0225C150.189 26.3154 150.306 26.563 150.459 26.7651C150.614 26.9644 150.797 27.1152 151.008 27.2178C151.222 27.3203 151.461 27.3716 151.724 27.3716C152 27.3716 152.244 27.3203 152.458 27.2178C152.672 27.1152 152.852 26.9644 152.999 26.7651C153.148 26.563 153.261 26.3154 153.337 26.0225C153.413 25.7266 153.451 25.3867 153.451 25.0029ZM160.213 21.6016V28H159.36L156.139 23.0649V28H155.291V21.6016H156.139L159.373 26.5498V21.6016H160.213Z" fill="white" style="fill:white;fill-opacity:1;"/>
<defs>
<linearGradient id="paint0_linear_2012_932" x1="114.089" y1="34.0004" x2="105.888" y2="34.0004" gradientUnits="userSpaceOnUse">
<stop stop-color="#FFBC00" style="stop-color:#FFBC00;stop-color:color(display-p3 1.0000 0.7373 0.0000);stop-opacity:1;"/>
<stop offset="1" stop-color="#FFDA03" style="stop-color:#FFDA03;stop-color:color(display-p3 1.0000 0.8549 0.0118);stop-opacity:1;"/>
</linearGradient>
<linearGradient id="paint1_linear_2012_932" x1="107.815" y1="37.9708" x2="97.1111" y2="46.7933" gradientUnits="userSpaceOnUse">
<stop stop-color="#E22652" style="stop-color:#E22652;stop-color:color(display-p3 0.8863 0.1490 0.3216);stop-opacity:1;"/>
<stop offset="1" stop-color="#FF3A44" style="stop-color:#FF3A44;stop-color:color(display-p3 1.0000 0.2275 0.2667);stop-opacity:1;"/>
</linearGradient>
<linearGradient id="paint2_linear_2012_932" x1="95.3207" y1="23.0463" x2="102.457" y2="29.3213" gradientUnits="userSpaceOnUse">
<stop stop-color="#0ED574" style="stop-color:#0ED574;stop-color:color(display-p3 0.0549 0.8353 0.4549);stop-opacity:1;"/>
<stop offset="1" stop-color="#07F076" style="stop-color:#07F076;stop-color:color(display-p3 0.0275 0.9412 0.4627);stop-opacity:1;"/>
</linearGradient>
</defs>
</svg>
