<svg width="20" height="19" viewBox="0 0 20 19" fill="none" xmlns="http://www.w3.org/2000/svg">
<path fill-rule="evenodd" clip-rule="evenodd" d="M1.66433 5.66853L7.50114 0.999083C8.96202 -0.169617 11.0378 -0.169616 12.4987 0.999084L18.3355 5.66853C19.3759 6.50082 19.9336 7.79647 19.8229 9.12418L19.1527 17.1662C19.0664 18.2027 18.1998 19.0001 17.1597 19.0001H13.2748C11.9097 19.0001 10.9457 17.6627 11.3774 16.3676L11.6303 15.6089C12.0581 14.3255 11.1028 13.0001 9.74992 13.0001C8.39703 13.0001 7.44173 14.3255 7.86955 15.6089L8.12244 16.3676C8.55412 17.6627 7.59018 19.0001 6.22507 19.0001H2.84019C1.80001 19.0001 0.933477 18.2027 0.847095 17.1661L0.176931 9.12419C0.0662881 7.79647 0.62397 6.50082 1.66433 5.66853ZM2.60138 6.83983L8.43818 2.17039C9.35123 1.43995 10.6486 1.43995 11.5617 2.17039L17.3985 6.83983C18.0487 7.36001 18.3972 8.1698 18.3281 8.99962L17.6579 17.0416C17.6363 17.3007 17.4197 17.5001 17.1597 17.5001H13.2748C12.9335 17.5001 12.6925 17.1657 12.8004 16.8419L13.0533 16.0833C13.8049 13.8285 12.1266 11.5001 9.74992 11.5001C7.3732 11.5001 5.69494 13.8285 6.44652 16.0833L6.69941 16.8419C6.80733 17.1657 6.56635 17.5001 6.22507 17.5001H2.84019C2.58014 17.5001 2.36351 17.3007 2.34191 17.0416L1.67175 8.99962C1.6026 8.1698 1.95115 7.36001 2.60138 6.83983Z" fill="#5C6A70" style="fill:#5C6A70;fill:color(display-p3 0.3600 0.4160 0.4400);fill-opacity:1;"/>
</svg>
