<svg width="20" height="21" viewBox="0 0 20 21" fill="none" xmlns="http://www.w3.org/2000/svg">
<path d="M10 14.4199C11.933 14.4199 13.5 12.8529 13.5 10.9199C13.5 8.98693 11.933 7.41992 10 7.41992C8.067 7.41992 6.5 8.98693 6.5 10.9199C6.5 12.8529 8.067 14.4199 10 14.4199Z" fill="white" style="fill:white;fill-opacity:1;"/>
<path fill-rule="evenodd" clip-rule="evenodd" d="M0 10.4199C0 6.68146 0 4.81223 0.803847 3.41992C1.33046 2.50781 2.08788 1.75038 3 1.22377C4.3923 0.419922 6.26154 0.419922 10 0.419922C13.7385 0.419922 15.6077 0.419922 17 1.22377C17.9121 1.75038 18.6695 2.50781 19.1962 3.41992C20 4.81223 20 6.68146 20 10.4199C20 14.1584 20 16.0276 19.1962 17.4199C18.6695 18.332 17.9121 19.0895 17 19.6161C15.6077 20.4199 13.7385 20.4199 10 20.4199C6.26154 20.4199 4.3923 20.4199 3 19.6161C2.08788 19.0895 1.33046 18.332 0.803847 17.4199C0 16.0276 0 14.1584 0 10.4199ZM10 15.9199C12.7614 15.9199 15 13.6813 15 10.9199C15 8.1585 12.7614 5.91992 10 5.91992C7.23858 5.91992 5 8.1585 5 10.9199C5 13.6813 7.23858 15.9199 10 15.9199ZM14.5 6.41992C15.3284 6.41992 16 5.74835 16 4.91992C16 4.09149 15.3284 3.41992 14.5 3.41992C13.6716 3.41992 13 4.09149 13 4.91992C13 5.74835 13.6716 6.41992 14.5 6.41992Z" fill="white" style="fill:white;fill-opacity:1;"/>
</svg>
