<svg width="19" height="16" viewBox="0 0 19 16" fill="none" xmlns="http://www.w3.org/2000/svg">
<path d="M4.96408 8.16565C5.1353 8.54281 5.57986 8.70976 5.95703 8.53854C6.3342 8.36731 6.50115 7.92275 6.32992 7.54559L4.96408 8.16565ZM3.662 6.58562L3.65209 7.33555C3.65697 7.33562 3.66185 7.33563 3.66672 7.3356L3.662 6.58562ZM1.5 8.69062L0.75 8.68049V8.69062H1.5ZM1.5 12.9026H0.749906L0.750094 12.9145L1.5 12.9026ZM3.662 15.0026L3.66791 14.2526C3.66263 14.2526 3.65735 14.2526 3.65206 14.2527L3.662 15.0026ZM6.42934 13.7892C6.56387 13.3975 6.35536 12.9708 5.9636 12.8363C5.57185 12.7017 5.1452 12.9103 5.01066 13.302L6.42934 13.7892ZM6.33221 7.55068C6.1638 7.17225 5.7205 7.00199 5.34207 7.1704C4.96363 7.33881 4.79338 7.78212 4.96179 8.16055L6.33221 7.55068ZM5.824 8.69062L5.074 8.68991V8.69062H5.824ZM5.824 12.9026H5.07398L5.07402 12.9078L5.824 12.9026ZM5.01059 13.3182C4.88279 13.7122 5.09861 14.1352 5.49261 14.263C5.88662 14.3908 6.30962 14.175 6.43741 13.781L5.01059 13.3182ZM4.97556 7.52145C4.791 7.89227 4.942 8.3425 5.31283 8.52706C5.68366 8.71161 6.13388 8.56061 6.31844 8.18979L4.97556 7.52145ZM6.355 6.98662L5.91219 6.38129C5.90539 6.38626 5.89867 6.39136 5.89204 6.39656L6.355 6.98662ZM6.733 6.45062L7.45185 6.66452C7.45451 6.65558 7.457 6.64659 7.45933 6.63756L6.733 6.45062ZM7.814 2.25062L7.09387 2.04105C7.09169 2.04856 7.08962 2.0561 7.08767 2.06367L7.814 2.25062ZM9.933 1.06062L9.73713 1.78459C9.74286 1.78614 9.7486 1.78762 9.75436 1.78903L9.933 1.06062ZM10.977 1.83447L10.332 2.21721V2.21721L10.977 1.83447ZM11.156 3.12162L11.8791 3.32085L11.8809 3.31384L11.156 3.12162ZM10.538 5.36462L9.81485 5.16537L9.8119 5.17678L10.538 5.36462ZM10.6929 6.10118L10.1039 6.56555L10.1039 6.56555L10.6929 6.10118ZM11.373 6.42362V5.6735L11.3597 5.67373L11.373 6.42362ZM14.905 6.42362V7.17369L14.9153 7.17355L14.905 6.42362ZM16.7259 7.14896L17.249 6.61153V6.61153L16.7259 7.14896ZM17.5 8.94962H18.2501L18.2499 8.93973L17.5 8.94962ZM17.5 12.3166L18.25 12.3268V12.3166H17.5ZM16.7255 14.1166L16.2025 13.5791V13.5791L16.7255 14.1166ZM14.905 14.8416L14.9153 14.0916H14.905V14.8416ZM7.986 14.8416V14.0916L7.98221 14.0916L7.986 14.8416ZM6.36836 13.1686C6.16014 12.8105 5.70107 12.689 5.34299 12.8973C4.98492 13.1055 4.86343 13.5645 5.07164 13.9226L6.36836 13.1686ZM6.32992 7.54559C5.85444 6.49822 4.8075 5.82839 3.65728 5.83563L3.66672 7.3356C4.22507 7.33209 4.73327 7.65723 4.96408 8.16565L6.32992 7.54559ZM3.67191 5.83568C2.07959 5.81464 0.77157 7.08817 0.750068 8.68049L2.24993 8.70074C2.26025 7.93661 2.88795 7.32545 3.65209 7.33555L3.67191 5.83568ZM0.75 8.69062V12.9026H2.25V8.69062H0.75ZM0.750094 12.9145C0.775285 14.5042 2.08221 15.7736 3.67194 15.7526L3.65206 14.2527C2.88917 14.2628 2.26199 13.6536 2.24991 12.8907L0.750094 12.9145ZM3.65609 15.7526C4.90648 15.7624 6.02319 14.9719 6.42934 13.7892L5.01066 13.302C4.81401 13.8746 4.27333 14.2574 3.66791 14.2526L3.65609 15.7526ZM4.96179 8.16055C5.03594 8.32717 5.07417 8.50754 5.074 8.68991L6.574 8.69132C6.57437 8.29835 6.49198 7.90971 6.33221 7.55068L4.96179 8.16055ZM5.074 8.69062V12.9026H6.574V8.69062H5.074ZM5.07402 12.9078C5.07498 13.0471 5.05357 13.1857 5.01059 13.3182L6.43741 13.781C6.52995 13.4957 6.57606 13.1974 6.57398 12.8974L5.07402 12.9078ZM6.31844 8.18979C6.43735 7.95086 6.60799 7.74142 6.81796 7.57668L5.89204 6.39656C5.50681 6.69881 5.19373 7.08308 4.97556 7.52145L6.31844 8.18979ZM6.79781 7.59195C7.11133 7.3626 7.34106 7.03684 7.45185 6.66452L6.01415 6.23672C5.99688 6.29476 5.96107 6.34554 5.91219 6.38129L6.79781 7.59195ZM7.45933 6.63756L8.54033 2.43756L7.08767 2.06367L6.00667 6.26367L7.45933 6.63756ZM8.53413 2.46018C8.6841 1.94484 9.21904 1.64442 9.73713 1.78459L10.1289 0.336644C8.8218 -0.0169759 7.47222 0.740929 7.09387 2.04105L8.53413 2.46018ZM9.75436 1.78903C9.99658 1.84843 10.2047 2.00273 10.332 2.21721L11.622 1.45173C11.2892 0.890953 10.745 0.48752 10.1116 0.332202L9.75436 1.78903ZM10.332 2.21721C10.4593 2.43169 10.495 2.68833 10.4311 2.92939L11.8809 3.31384C12.0481 2.68354 11.9548 2.01251 11.622 1.45173L10.332 2.21721ZM10.4329 2.9224L9.81494 5.1654L11.2611 5.56384L11.8791 3.32084L10.4329 2.9224ZM9.8119 5.17678C9.68692 5.6599 9.79496 6.17368 10.1039 6.56555L11.2818 5.63681C11.2631 5.61301 11.2565 5.5818 11.2641 5.55246L9.8119 5.17678ZM10.1039 6.56555C10.4129 6.95742 10.8873 7.18233 11.3863 7.1735L11.3597 5.67373C11.3294 5.67427 11.3006 5.66061 11.2818 5.63681L10.1039 6.56555ZM11.373 7.17362H14.905V5.67362H11.373V7.17362ZM14.9153 7.17355C15.3955 7.16694 15.8586 7.35142 16.2027 7.68638L17.249 6.61153C16.6197 5.99898 15.7728 5.6616 14.8947 5.67369L14.9153 7.17355ZM16.2027 7.68638C16.5468 8.02135 16.7437 8.47933 16.7501 8.95951L18.2499 8.93973C18.2384 8.06161 17.8783 7.22408 17.249 6.61153L16.2027 7.68638ZM16.75 8.94962V12.3166H18.25V8.94962H16.75ZM16.7501 12.3064C16.7436 12.7865 16.5466 13.2443 16.2025 13.5791L17.2485 14.6542C17.8778 14.0419 18.238 13.2047 18.2499 12.3268L16.7501 12.3064ZM16.2025 13.5791C15.8584 13.9139 15.3954 14.0983 14.9153 14.0917L14.8947 15.5915C15.7726 15.6036 16.6193 15.2664 17.2485 14.6542L16.2025 13.5791ZM14.905 14.0916H7.986V15.5916H14.905V14.0916ZM7.98221 14.0916C7.31783 14.095 6.70233 13.743 6.36836 13.1686L5.07164 13.9226C5.67552 14.9612 6.78847 15.5977 7.98979 15.5916L7.98221 14.0916Z" fill="#f53d4f" style="fill:#f53d4f:;fill-opacity:1;"/>
</svg>
