<svg width="18" height="21" viewBox="0 0 18 21" fill="none" xmlns="http://www.w3.org/2000/svg">
<path fill-rule="evenodd" clip-rule="evenodd" d="M4.25 7V5C4.25 2.37665 6.37665 0.25 9 0.25C11.6234 0.25 13.75 2.37665 13.75 5V7H14C16.2091 7 18 8.79086 18 11V17C18 19.2091 16.2091 21 14 21H4C1.79086 21 0 19.2091 0 17V11C0 8.79086 1.79086 7 4 7H4.25ZM5.75 5C5.75 3.20507 7.20507 1.75 9 1.75C10.7949 1.75 12.25 3.20507 12.25 5V7H5.75V5ZM10 13C10 13.2536 9.90559 13.4852 9.75 13.6615V17C9.75 17.4142 9.41421 17.75 9 17.75C8.58579 17.75 8.25 17.4142 8.25 17V13.6615C8.09441 13.4852 8 13.2536 8 13C8 12.4477 8.44771 12 9 12C9.55229 12 10 12.4477 10 13Z" fill="#5C6A70" style="fill:#5C6A70;fill:color(display-p3 0.3600 0.4160 0.4400);fill-opacity:1;"/>
</svg>
