<svg width="53" height="52" viewBox="0 0 53 52" fill="none" xmlns="http://www.w3.org/2000/svg">
<path d="M0.666748 26C0.666748 11.6406 12.3073 0 26.6667 0C41.0261 0 52.6667 11.6406 52.6667 26C52.6667 40.3594 41.0261 52 26.6667 52C12.3073 52 0.666748 40.3594 0.666748 26Z" fill="#FEF0F2" style="fill:#FEF0F2;fill:color(display-p3 0.9970 0.9430 0.9482);fill-opacity:1;"/>
<path fill-rule="evenodd" clip-rule="evenodd" d="M22.6668 13C19.169 13 16.3335 15.8355 16.3335 19.3333V32.6667C16.3335 36.1645 19.169 39 22.6668 39H30.6668C34.1646 39 37.0002 36.1645 37.0002 32.6667V21.5425C37.0002 19.8628 36.3329 18.2519 35.1452 17.0641L32.936 14.855C31.7483 13.6673 30.1374 13 28.4577 13H22.6668ZM20.3335 22C20.3335 21.4477 20.7812 21 21.3335 21H26.6668C27.2191 21 27.6668 21.4477 27.6668 22C27.6668 22.5523 27.2191 23 26.6668 23H21.3335C20.7812 23 20.3335 22.5523 20.3335 22ZM20.3335 27.3333C20.3335 26.781 20.7812 26.3333 21.3335 26.3333H32.0002C32.5524 26.3333 33.0002 26.781 33.0002 27.3333C33.0002 27.8856 32.5524 28.3333 32.0002 28.3333H21.3335C20.7812 28.3333 20.3335 27.8856 20.3335 27.3333ZM20.3335 32.6667C20.3335 32.1144 20.7812 31.6667 21.3335 31.6667H32.0002C32.5524 31.6667 33.0002 32.1144 33.0002 32.6667C33.0002 33.219 32.5524 33.6667 32.0002 33.6667H21.3335C20.7812 33.6667 20.3335 33.219 20.3335 32.6667Z" fill="#F53D4F" style="fill:#F53D4F;fill:color(display-p3 0.9600 0.2400 0.3094);fill-opacity:1;"/>
</svg>
