<svg width="53" height="52" viewBox="0 0 53 52" fill="none" xmlns="http://www.w3.org/2000/svg">
<path d="M0.333496 26C0.333496 11.6406 11.9741 0 26.3335 0C40.6929 0 52.3335 11.6406 52.3335 26C52.3335 40.3594 40.6929 52 26.3335 52C11.9741 52 0.333496 40.3594 0.333496 26Z" fill="#FEF0F2" style="fill:#FEF0F2;fill:color(display-p3 0.9970 0.9430 0.9482);fill-opacity:1;"/>
<path fill-rule="evenodd" clip-rule="evenodd" d="M26.3336 39.3332C33.6974 39.3332 39.6669 33.3636 39.6669 25.9998C39.6669 18.636 33.6974 12.6665 26.3336 12.6665C18.9698 12.6665 13.0002 18.636 13.0002 25.9998C13.0002 33.3636 18.9698 39.3332 26.3336 39.3332ZM27.4842 20.506C27.498 19.8624 26.98 19.3332 26.3362 19.3332C25.6927 19.3332 25.1749 19.8619 25.1883 20.5053L25.3375 27.6713C25.3488 28.2135 25.7916 28.6472 26.3339 28.6472C26.876 28.6472 27.3186 28.2139 27.3303 27.672L27.4842 20.506ZM25.3881 32.2543C25.6507 32.5291 25.9659 32.6665 26.3336 32.6665C26.576 32.6665 26.7962 32.6042 26.9942 32.4797C27.1962 32.3509 27.3578 32.1791 27.479 31.9644C27.6043 31.7497 27.6669 31.5114 27.6669 31.2494C27.6669 30.863 27.5336 30.5323 27.2669 30.2575C27.0043 29.9827 26.6932 29.8452 26.3336 29.8452C25.9659 29.8452 25.6507 29.9827 25.3881 30.2575C25.1295 30.5323 25.0002 30.863 25.0002 31.2494C25.0002 31.6445 25.1295 31.9794 25.3881 32.2543Z" fill="#F53D4F" style="fill:#F53D4F;fill:color(display-p3 0.9600 0.2400 0.3094);fill-opacity:1;"/>
</svg>
