<svg width="52" height="52" viewBox="0 0 52 52" fill="none" xmlns="http://www.w3.org/2000/svg">
<path d="M0 26C0 11.6406 11.6406 0 26 0C40.3594 0 52 11.6406 52 26C52 40.3594 40.3594 52 26 52C11.6406 52 0 40.3594 0 26Z" fill="#FEF0F2" style="fill:#FEF0F2;fill:color(display-p3 0.9970 0.9430 0.9482);fill-opacity:1;"/>
<path fill-rule="evenodd" clip-rule="evenodd" d="M27.3334 14C24.3879 14 22.0001 16.3878 22.0001 19.3333V34C22.0001 36.4449 23.6452 38.5056 25.8889 39.1354V35.3333C25.8889 34.0447 26.9336 33 28.2222 33H30.4445C31.7331 33 32.7778 34.0447 32.7778 35.3333V39.1354C35.0215 38.5057 36.6667 36.445 36.6667 34V19.3333C36.6667 16.3878 34.2789 14 31.3334 14H27.3334ZM28.5186 17.6667C27.9663 17.6667 27.5186 18.1144 27.5186 18.6667C27.5186 19.219 27.9663 19.6667 28.5186 19.6667H30.1483C30.7005 19.6667 31.1483 19.219 31.1483 18.6667C31.1483 18.1144 30.7005 17.6667 30.1483 17.6667H28.5186ZM27.5186 22.6667C27.5186 22.1144 27.9663 21.6667 28.5186 21.6667H30.1483C30.7005 21.6667 31.1483 22.1144 31.1483 22.6667C31.1483 23.219 30.7005 23.6667 30.1483 23.6667H28.5186C27.9663 23.6667 27.5186 23.219 27.5186 22.6667ZM28.5186 25.6667C27.9663 25.6667 27.5186 26.1144 27.5186 26.6667C27.5186 27.219 27.9663 27.6667 28.5186 27.6667H30.1483C30.7005 27.6667 31.1483 27.219 31.1483 26.6667C31.1483 26.1144 30.7005 25.6667 30.1483 25.6667H28.5186ZM27.5186 30.6667C27.5186 30.1144 27.9663 29.6667 28.5186 29.6667H30.1483C30.7005 29.6667 31.1483 30.1144 31.1483 30.6667C31.1483 31.219 30.7005 31.6667 30.1483 31.6667H28.5186C27.9663 31.6667 27.5186 31.219 27.5186 30.6667Z" fill="#F53D4F" style="fill:#F53D4F;fill:color(display-p3 0.9600 0.2400 0.3094);fill-opacity:1;"/>
<path d="M30.7778 35.3333C30.7778 35.1492 30.6286 35 30.4445 35H28.2222C28.0381 35 27.8889 35.1492 27.8889 35.3333V39.3333H30.7778V35.3333Z" fill="#F53D4F" style="fill:#F53D4F;fill:color(display-p3 0.9600 0.2400 0.3094);fill-opacity:1;"/>
<path d="M20.0204 26.8607C19.7532 28.5023 18.867 29.8568 18.1003 30.6464V37.3333C18.1003 37.8856 17.6526 38.3333 17.1003 38.3333C16.548 38.3333 16.1003 37.8856 16.1003 37.3333V30.3926C15.3955 29.5827 14.6538 28.338 14.4133 26.8607C14.129 25.1142 14.5627 23.1234 16.3932 21.2929C16.6181 21.0679 16.9236 20.9726 17.2169 21.0068C17.5101 20.9726 17.8156 21.0679 18.0405 21.2929C19.871 23.1234 20.3047 25.1142 20.0204 26.8607Z" fill="#F53D4F" style="fill:#F53D4F;fill:color(display-p3 0.9600 0.2400 0.3094);fill-opacity:1;"/>
</svg>
