<svg width="20" height="17" viewBox="0 0 20 17" fill="none" xmlns="http://www.w3.org/2000/svg">
<path fill-rule="evenodd" clip-rule="evenodd" d="M4 0.419922H16C18.2091 0.419922 20 2.21078 20 4.41992V12.4199C20 14.6291 18.2091 16.4199 16 16.4199H4C1.79086 16.4199 0 14.6291 0 12.4199V4.41992C0 2.21078 1.79086 0.419922 4 0.419922ZM4.6 2.96992C4.35147 2.63855 3.88137 2.57139 3.55 2.81992C3.21863 3.06845 3.15147 3.53855 3.4 3.86992L6.2 7.60325C8.1 10.1366 11.9 10.1366 13.8 7.60325L16.6 3.86992C16.8485 3.53855 16.7814 3.06845 16.45 2.81992C16.1186 2.57139 15.6485 2.63855 15.4 2.96992L12.6 6.70325C11.3 8.43659 8.7 8.43659 7.4 6.70325L4.6 2.96992Z" fill="white" style="fill:white;fill-opacity:1;"/>
</svg>
