<svg width="48" height="49" viewBox="0 0 48 49" fill="none" xmlns="http://www.w3.org/2000/svg">
<path d="M24 0.419922C10.482 0.419922 0 10.3259 0 23.6999C0 30.6959 2.868 36.7439 7.536 40.9199C7.926 41.2679 8.166 41.7599 8.178 42.2879L8.31 46.5599C8.31961 46.8743 8.40628 47.1814 8.5624 47.4544C8.71852 47.7274 8.93929 47.9578 9.20533 48.1255C9.47137 48.2932 9.77453 48.393 10.0882 48.4161C10.4018 48.4391 10.7163 48.3848 11.004 48.2579L15.768 46.1579C16.17 45.9779 16.626 45.9479 17.052 46.0619C19.242 46.6619 21.57 46.9859 24 46.9859C37.518 46.9859 48 37.0799 48 23.7059C48 10.3319 37.518 0.419922 24 0.419922Z" fill="url(#paint0_radial_2012_1594)" style=""/>
<path d="M9.58802 30.5101L16.638 19.3261C16.9032 18.905 17.2529 18.5435 17.6648 18.2644C18.0768 17.9853 18.5422 17.7946 19.0316 17.7044C19.5209 17.6141 20.0237 17.6264 20.5081 17.7403C20.9926 17.8542 21.4481 18.0673 21.846 18.3661L27.456 22.5721C27.7065 22.7596 28.0112 22.8605 28.324 22.8594C28.6369 22.8583 28.9409 22.7553 29.19 22.5661L36.762 16.8181C37.77 16.0501 39.09 17.2621 38.418 18.3361L31.362 29.5141C31.0968 29.9352 30.7472 30.2967 30.3352 30.5758C29.9232 30.855 29.4579 31.0457 28.9685 31.1359C28.4791 31.2261 27.9763 31.2138 27.4919 31.0999C27.0075 30.986 26.5519 30.7729 26.154 30.4741L20.544 26.2681C20.2936 26.0806 19.9889 25.9798 19.676 25.9809C19.3632 25.9819 19.0592 26.0849 18.81 26.2741L11.238 32.0221C10.23 32.7901 8.91002 31.5841 9.58802 30.5101Z" fill="white" style="fill:white;fill-opacity:1;"/>
<defs>
<radialGradient id="paint0_radial_2012_1594" cx="0" cy="0" r="1" gradientUnits="userSpaceOnUse" gradientTransform="translate(8.04 48.4199) scale(52.8 52.8)">
<stop stop-color="#0099FF" style="stop-color:#0099FF;stop-color:color(display-p3 0.0000 0.6000 1.0000);stop-opacity:1;"/>
<stop offset="0.6" stop-color="#A033FF" style="stop-color:#A033FF;stop-color:color(display-p3 0.6275 0.2000 1.0000);stop-opacity:1;"/>
<stop offset="0.9" stop-color="#FF5280" style="stop-color:#FF5280;stop-color:color(display-p3 1.0000 0.3216 0.5020);stop-opacity:1;"/>
<stop offset="1" stop-color="#FF7061" style="stop-color:#FF7061;stop-color:color(display-p3 1.0000 0.4392 0.3804);stop-opacity:1;"/>
</radialGradient>
</defs>
</svg>
