<svg width="36" height="35" viewBox="0 0 36 35" fill="none" xmlns="http://www.w3.org/2000/svg">
<path fill-rule="evenodd" clip-rule="evenodd" d="M28 0.387695H8C3.58172 0.387695 0 3.96952 0 8.38791V21.1194C0 25.134 3.25437 28.3885 7.26884 28.3885C9.02952 28.3885 10.7304 29.0275 12.0554 30.187L15.366 33.0838C16.8741 34.4035 19.1259 34.4035 20.634 33.0838L23.9446 30.187C25.2696 29.0275 26.9705 28.3885 28.7312 28.3885C32.7456 28.3885 36 25.134 36 21.1194V8.38791C36 3.96952 32.4183 0.387695 28 0.387695ZM18 21.8883C18.8284 21.8883 19.5 22.5599 19.5 23.3883V23.4883C19.5 24.3168 18.8284 24.9884 18 24.9884C17.1716 24.9884 16.5 24.3168 16.5 23.4883V23.3883C16.5 22.5599 17.1716 21.8883 18 21.8883ZM17.747 13.0592C18.1261 12.1113 19.3509 11.8599 20.0727 12.5818C20.759 13.2681 20.5713 14.4251 19.7032 14.8592L19.118 15.1517C17.5135 15.954 16.5 17.594 16.5 19.3879C16.5 20.2164 17.1716 20.8879 18 20.8879C18.8284 20.8879 19.5 20.2164 19.5 19.3879C19.5 18.7303 19.8715 18.1292 20.4597 17.8351L21.0448 17.5425C23.7444 16.1927 24.3283 12.5947 22.194 10.4604C19.9493 8.21555 16.1406 8.99733 14.9616 11.945L14.6073 12.8306C14.2996 13.5998 14.6737 14.4728 15.4429 14.7805C16.2121 15.0882 17.085 14.714 17.3927 13.9448L17.747 13.0592Z" fill="#F53D4F" style="fill:#F53D4F;fill:color(display-p3 0.9600 0.2400 0.3094);fill-opacity:1;"/>
</svg>
