<svg width="13" height="16" viewBox="0 0 13 16" fill="none" xmlns="http://www.w3.org/2000/svg">
<path fill-rule="evenodd" clip-rule="evenodd" d="M12.0003 13.2342C11.969 12.3071 11.1976 11.5777 10.2702 11.5986C9.34284 11.6194 8.60492 12.3826 8.61534 13.3102C8.62577 14.2377 9.38067 14.9842 10.3083 14.9842C11.2586 14.9677 12.0159 14.1845 12.0003 13.2342Z" stroke="#f53d4f" style="stroke:#f53d4f;stroke-opacity:1;" stroke-width="1.5" stroke-linecap="round" stroke-linejoin="round"/>
<path fill-rule="evenodd" clip-rule="evenodd" d="M6.07735 7.98438C6.10075 9.41023 4.9642 10.5853 3.53836 10.6094C2.1129 10.5847 0.97696 9.40985 1.00035 7.98438C0.97696 6.5589 2.1129 5.38402 3.53836 5.35938C4.9642 5.38348 6.10075 6.55852 6.07735 7.98438Z" stroke="#f53d4f" style="stroke:#f53d4f;stroke-opacity:1;" stroke-width="1.5" stroke-linecap="round" stroke-linejoin="round"/>
<path fill-rule="evenodd" clip-rule="evenodd" d="M11.1545 2.73414C11.1695 3.34862 10.8502 3.92293 10.3204 4.23456C9.79059 4.54619 9.1335 4.54619 8.60369 4.23456C8.07389 3.92293 7.75461 3.34862 7.76955 2.73414C7.75461 2.11966 8.07389 1.54536 8.60369 1.23372C9.1335 0.922092 9.79059 0.922092 10.3204 1.23372C10.8502 1.54536 11.1695 2.11966 11.1545 2.73414Z" stroke="#f53d4f" style="stroke:#f53d4f;stroke-opacity:1;" stroke-width="1.5" stroke-linecap="round" stroke-linejoin="round"/>
<path d="M8.60485 12.6879C8.94277 12.9274 9.4109 12.8477 9.65044 12.5097C9.88998 12.1718 9.81023 11.7037 9.4723 11.4642L8.60485 12.6879ZM5.9723 8.98315C5.63438 8.74361 5.16625 8.82337 4.92671 9.16129C4.68717 9.49922 4.76692 9.96735 5.10485 10.2069L5.9723 8.98315ZM8.70113 4.44255C9.00352 4.15947 9.01918 3.68485 8.7361 3.38246C8.45302 3.08007 7.97841 3.06442 7.67602 3.34749L8.70113 4.44255ZM5.03002 5.82449C4.72763 6.10757 4.71197 6.58219 4.99505 6.88458C5.27812 7.18697 5.75274 7.20262 6.05513 6.91955L5.03002 5.82449ZM9.4723 11.4642L5.9723 8.98315L5.10485 10.2069L8.60485 12.6879L9.4723 11.4642ZM7.67602 3.34749L5.03002 5.82449L6.05513 6.91955L8.70113 4.44255L7.67602 3.34749Z" fill="#f53d4f" style="fill:#f53d4f;fill-opacity:1;"/>
</svg>
