<svg width="52" height="53" viewBox="0 0 52 53" fill="none" xmlns="http://www.w3.org/2000/svg">
<path d="M0 26.0903C0 11.7309 11.6406 0.090332 26 0.090332C40.3594 0.090332 52 11.7309 52 26.0903C52 40.4497 40.3594 52.0903 26 52.0903C11.6406 52.0903 0 40.4497 0 26.0903Z" fill="#FEF0F2" style="fill:#FEF0F2;fill:color(display-p3 0.9970 0.9430 0.9482);fill-opacity:1;"/>
<path fill-rule="evenodd" clip-rule="evenodd" d="M39.3334 26.0902C39.3334 21.1056 39.3334 18.6132 38.2616 16.7568C37.5594 15.5407 36.5495 14.5308 35.3334 13.8286C33.4769 12.7568 30.9846 12.7568 26 12.7568C21.0154 12.7568 18.5231 12.7568 16.6667 13.8286C15.4505 14.5308 14.4406 15.5407 13.7385 16.7568C12.6667 18.6132 12.6667 21.1056 12.6667 26.0902C12.6667 31.0748 12.6667 33.5671 13.7385 35.4235C14.4406 36.6397 15.4505 37.6496 16.6667 38.3517C18.5231 39.4235 21.0154 39.4235 26 39.4235C30.9846 39.4235 33.4769 39.4235 35.3334 38.3517C36.5495 37.6496 37.5594 36.6397 38.2616 35.4235C39.3334 33.5671 39.3334 31.0748 39.3334 26.0902ZM32.7071 22.7973C33.0977 22.4068 33.0977 21.7736 32.7071 21.3831C32.3166 20.9925 31.6834 20.9925 31.2929 21.3831L23.3334 29.3426L20.0405 26.0497C19.6499 25.6592 19.0168 25.6592 18.6262 26.0497C18.2357 26.4403 18.2357 27.0734 18.6262 27.4639L22.6262 31.4639C23.0168 31.8545 23.6499 31.8545 24.0405 31.4639L32.7071 22.7973Z" fill="#F53D4F" style="fill:#F53D4F;fill:color(display-p3 0.9600 0.2400 0.3094);fill-opacity:1;"/>
</svg>
