<svg width="20" height="18" viewBox="0 0 20 18" fill="none" xmlns="http://www.w3.org/2000/svg">
<path fill-rule="evenodd" clip-rule="evenodd" d="M5.258 0.25C2.5181 0.25 0.346342 2.56173 0.517252 5.2963L1.01725 13.2963C1.06445 14.0514 1.28686 14.7579 1.64386 15.3754C2.46686 16.7989 4.00654 17.75 5.758 17.75H14.2961C16.0458 17.75 17.5866 16.8002 18.4102 15.3753C18.4311 15.3392 18.449 15.3014 18.4636 15.2622L19.5829 12.2629C19.9097 11.3872 19.7976 10.4852 19.3857 9.75912C19.4154 9.67836 19.4316 9.59108 19.4316 9.5V8.16895C19.619 5.51232 17.514 3.25 14.8466 3.25H12.5002C12.086 3.25 11.7502 2.91421 11.7502 2.5C11.7502 1.25736 10.7428 0.25 9.5002 0.25H5.258ZM13.0207 8.25C12.6881 8.25 12.4351 7.95136 12.4898 7.6233C12.6969 6.38094 11.7388 5.25 10.4793 5.25H7.29848C5.02469 5.25 3.07224 6.86697 2.64856 9.10094L2.41126 10.3522L2.35324 10.6253L2.01433 5.20273C1.89739 3.33171 3.38333 1.75 5.258 1.75H9.5002C9.91441 1.75 10.2502 2.08579 10.2502 2.5C10.2502 3.74264 11.2576 4.75 12.5002 4.75H14.8466C16.6503 4.75 18.0722 6.2855 17.9338 8.08386C17.9324 8.103 17.9316 8.12219 17.9316 8.14138V8.47168C17.5858 8.32939 17.2041 8.25 16.7979 8.25H13.0207Z" fill="#F53D4F" style="fill:#F53D4F;fill:color(display-p3 0.9600 0.2400 0.3094);fill-opacity:1;"/>
</svg>
