<svg width="20" height="17" viewBox="0 0 20 17" fill="none" xmlns="http://www.w3.org/2000/svg">
<path d="M17.9998 5.25464C17.9403 16.3369 6.22543 18.6911 0.969746 15.9404C0.805046 15.8542 0.852769 15.6162 1.03563 15.5827C3.11396 15.2023 4.51452 14.4452 5.18938 13.9347C5.32211 13.8343 5.25982 13.6362 5.09724 13.6006C3.93286 13.3458 2.63734 12.5845 2.10297 11.0194C2.05197 10.8701 2.1968 10.7341 2.34968 10.7733C3.04371 10.951 3.51023 10.8991 3.77538 10.8004C3.89897 10.7544 3.88733 10.6053 3.77513 10.536C2.64494 9.83803 0.862573 8.36937 0.956211 6.95004C0.965316 6.81203 1.12162 6.75105 1.23823 6.82542C1.8346 7.20577 2.11496 7.3082 2.27795 7.29523C2.40941 7.28477 2.38697 7.1052 2.28036 7.02757C1.28457 6.3024 0.629539 4.6768 1.37567 2.50425C1.42635 2.35668 1.62085 2.32929 1.72017 2.44963C4.05703 5.28098 7.90314 5.79339 9.77915 5.6861C9.89785 5.67931 9.97868 5.56456 9.95963 5.44721C9.19384 0.729568 14.8158 -0.256682 16.8867 2.03664C16.9538 2.11094 17.064 2.13145 17.1499 2.07994L18.9111 1.02323C19.0826 0.92028 19.2823 1.1052 19.1928 1.28417L18.6447 2.38042C18.5782 2.5134 18.6749 2.66986 18.8236 2.66986H19.4172C19.4702 2.66986 19.523 2.68911 19.556 2.73068C19.7095 2.92437 19.785 3.37288 18.0597 5.10993C18.0224 5.14757 18.0001 5.2016 17.9998 5.25464Z" fill="white" style="fill:white;fill-opacity:1;"/>
</svg>
