<svg width="16" height="16" viewBox="0 0 16 16" fill="none" xmlns="http://www.w3.org/2000/svg">
<path fill-rule="evenodd" clip-rule="evenodd" d="M15 11.889C15 13.6072 13.6072 15 11.889 15H4.111C2.39284 15 1 13.6072 1 11.889V4.111C1 2.39284 2.39284 1 4.111 1H11.889C13.6072 1 15 2.39284 15 4.111V11.889Z" stroke="#1C3C4A" style="stroke:#1C3C4A;stroke:color(display-p3 0.1100 0.2360 0.2900);stroke-opacity:1;" stroke-width="1.5" stroke-linecap="round" stroke-linejoin="round"/>
<path fill-rule="evenodd" clip-rule="evenodd" d="M7.752 6.39315C8.1407 5.77991 8.06587 4.98149 7.57 4.45115C7.08597 3.9335 6.29437 3.852 5.715 4.26015C5.47101 4.43223 5.2829 4.67215 5.174 4.95015C5.06258 5.2326 5.03346 5.54083 5.09 5.83915C5.14471 6.13484 5.2836 6.40846 5.49 6.62715C5.69221 6.84045 5.95446 6.98727 6.242 7.04815C6.52729 7.10737 6.82393 7.07662 7.091 6.96015C7.36302 6.8414 7.59324 6.64392 7.752 6.39315V6.39315Z" stroke="#1C3C4A" style="stroke:#1C3C4A;stroke:color(display-p3 0.1100 0.2360 0.2900);stroke-opacity:1;" stroke-width="1.5" stroke-linecap="round" stroke-linejoin="round"/>
<path fill-rule="evenodd" clip-rule="evenodd" d="M8.24793 11.316C7.85924 10.7028 7.93406 9.90434 8.42993 9.374C8.91396 8.85636 9.70556 8.77485 10.2849 9.183C10.5289 9.35508 10.717 9.595 10.8259 9.873C10.9373 10.1554 10.9665 10.4637 10.9099 10.762C10.8552 11.0577 10.7163 11.3313 10.5099 11.55C10.3077 11.7633 10.0455 11.9101 9.75793 11.971C9.47264 12.0302 9.176 11.9995 8.90893 11.883C8.63691 11.7643 8.40669 11.5668 8.24793 11.316Z" stroke="#1C3C4A" style="stroke:#1C3C4A;stroke:color(display-p3 0.1100 0.2360 0.2900);stroke-opacity:1;" stroke-width="1.5" stroke-linecap="round" stroke-linejoin="round"/>
<path d="M8 4.78809C7.58579 4.78809 7.25 5.12387 7.25 5.53809C7.25 5.9523 7.58579 6.28809 8 6.28809V4.78809ZM12 6.28809C12.4142 6.28809 12.75 5.9523 12.75 5.53809C12.75 5.12387 12.4142 4.78809 12 4.78809V6.28809ZM5.061 6.28809C5.47521 6.28809 5.811 5.9523 5.811 5.53809C5.811 5.12387 5.47521 4.78809 5.061 4.78809V6.28809ZM4 4.78809C3.58579 4.78809 3.25 5.12387 3.25 5.53809C3.25 5.9523 3.58579 6.28809 4 6.28809V4.78809ZM8 11.2121C8.41421 11.2121 8.75 10.8763 8.75 10.4621C8.75 10.0479 8.41421 9.71209 8 9.71209V11.2121ZM4 9.71209C3.58579 9.71209 3.25 10.0479 3.25 10.4621C3.25 10.8763 3.58579 11.2121 4 11.2121V9.71209ZM10.939 9.71209C10.5248 9.71209 10.189 10.0479 10.189 10.4621C10.189 10.8763 10.5248 11.2121 10.939 11.2121V9.71209ZM12 11.2121C12.4142 11.2121 12.75 10.8763 12.75 10.4621C12.75 10.0479 12.4142 9.71209 12 9.71209V11.2121ZM8 6.28809H12V4.78809H8V6.28809ZM5.061 4.78809H4V6.28809H5.061V4.78809ZM8 9.71209H4V11.2121H8V9.71209ZM10.939 11.2121H12V9.71209H10.939V11.2121Z" fill="#1C3C4A" style="fill:#1C3C4A;fill:color(display-p3 0.1100 0.2360 0.2900);fill-opacity:1;"/>
</svg>
