<svg width="20" height="18" viewBox="0 0 20 18" fill="none" xmlns="http://www.w3.org/2000/svg">
<path fill-rule="evenodd" clip-rule="evenodd" d="M15.4822 0.906606L16.1097 0.921623C18.2681 0.973267 20 2.54479 20 4.47587V13.3648C20 15.2958 18.2681 16.8674 16.1097 16.919L15.4822 16.934C15.4797 16.9341 16.1675 16.9159 15.8924 16.9232C15.2718 16.9396 12.1058 17.0203 10 17.0203C7.89419 17.0203 4.72815 16.9396 4.10764 16.9232C3.83254 16.9159 4.52029 16.9341 4.51782 16.934L3.89033 16.919C1.7319 16.8674 0 15.2958 0 13.3648V4.47587C0 2.54479 1.7319 0.973267 3.89033 0.921623L4.51781 0.906607C4.51781 0.906607 4.16989 0.915792 4.06939 0.918445L4.10764 0.917436C4.72815 0.901058 7.89419 0.820312 10 0.820312C12.1058 0.820312 15.2719 0.901058 15.8924 0.917436L15.9295 0.918416C15.8276 0.915726 15.4822 0.906606 15.4822 0.906606ZM7 11.0421V6.79871C7 5.30104 8.68532 4.40773 9.94353 5.23849L13.1569 7.36019C14.281 8.10242 14.281 9.7384 13.1569 10.4806L9.94353 12.6023C8.68532 13.4331 7 12.5398 7 11.0421Z" fill="white" style="fill:white;fill-opacity:1;"/>
</svg>
