<svg width="18" height="18" viewBox="0 0 18 18" fill="none" xmlns="http://www.w3.org/2000/svg">
<path d="M11 0.419922H4C1.79086 0.419922 0 2.21078 0 4.41992V9.40875C0 11.0718 1.34815 12.4199 3.01117 12.4199C3.74366 12.4199 4.45061 12.6869 5 13.1702V8.41992C5 6.76307 6.34315 5.41992 8 5.41992H15V4.41992C15 2.21078 13.2091 0.419922 11 0.419922Z" fill="white" style="fill:white;fill-opacity:1;"/>
<path fill-rule="evenodd" clip-rule="evenodd" d="M16 6.41992H8C6.89543 6.41992 6 7.31535 6 8.41992V13.611C6 14.9414 7.07852 16.0199 8.40894 16.0199C9.00405 16.0199 9.57809 16.2402 10.0204 16.6383L10.6621 17.2158C11.4227 17.9003 12.5773 17.9003 13.3379 17.2158L13.9796 16.6383C14.4219 16.2402 14.996 16.0199 15.5911 16.0199C16.9215 16.0199 18 14.9414 18 13.611V8.41992C18 7.31535 17.1046 6.41992 16 6.41992ZM9.75 11.6699C9.75 12.0841 9.41421 12.4199 9 12.4199C8.58579 12.4199 8.25 12.0841 8.25 11.6699C8.25 11.2557 8.58579 10.9199 9 10.9199C9.41421 10.9199 9.75 11.2557 9.75 11.6699ZM12 12.4199C12.4142 12.4199 12.75 12.0841 12.75 11.6699C12.75 11.2557 12.4142 10.9199 12 10.9199C11.5858 10.9199 11.25 11.2557 11.25 11.6699C11.25 12.0841 11.5858 12.4199 12 12.4199ZM15.75 11.6699C15.75 12.0841 15.4142 12.4199 15 12.4199C14.5858 12.4199 14.25 12.0841 14.25 11.6699C14.25 11.2557 14.5858 10.9199 15 10.9199C15.4142 10.9199 15.75 11.2557 15.75 11.6699Z" fill="white" style="fill:white;fill-opacity:1;"/>
</svg>
